<svg width="25" height="24" viewBox="0 0 25 24" fill="none" xmlns="http://www.w3.org/2000/svg">
<circle cx="12.1001" cy="8" r="2.5" stroke="#5D7285" stroke-linecap="round"/>
<path d="M13.868 6.5C14.0658 6.15743 14.3608 5.88121 14.7155 5.70625C15.0703 5.5313 15.469 5.46548 15.8612 5.51711C16.2533 5.56874 16.6214 5.73551 16.9188 5.99632C17.2162 6.25713 17.4296 6.60028 17.5319 6.98236C17.6343 7.36445 17.6211 7.76831 17.494 8.14288C17.3668 8.51745 17.1314 8.8459 16.8176 9.08671C16.5038 9.32751 16.1256 9.46985 15.7309 9.49572C15.3362 9.52159 14.9427 9.42983 14.6001 9.23205" stroke="#5D7285"/>
<path d="M10.3321 6.5C10.1344 6.15743 9.83944 5.88121 9.48468 5.70625C9.12991 5.5313 8.73122 5.46548 8.33905 5.51711C7.94687 5.56874 7.57881 5.73551 7.28141 5.99632C6.98401 6.25713 6.77063 6.60028 6.66825 6.98236C6.56587 7.36445 6.57909 7.76831 6.70624 8.14288C6.83339 8.51745 7.06875 8.8459 7.38258 9.08671C7.6964 9.32751 8.07458 9.46985 8.46929 9.49572C8.86401 9.52159 9.25753 9.42983 9.6001 9.23205" stroke="#5D7285"/>
<path d="M12.1001 12.5C16.1803 12.5 17.2336 15.8022 17.5055 17.507C17.5925 18.0524 17.1524 18.5 16.6001 18.5H7.6001C7.04781 18.5 6.60772 18.0524 6.6947 17.507C6.96659 15.8022 8.01986 12.5 12.1001 12.5Z" stroke="#5D7285" stroke-linecap="round"/>
<path d="M19.3967 15.4162L18.9117 15.5377L19.3967 15.4162ZM13.1873 12.5859L12.818 12.2488L12.1976 12.9283L13.1053 13.0791L13.1873 12.5859ZM17.2815 16.5L16.8012 16.639L16.9056 17H17.2815V16.5ZM15.6002 12C16.6279 12 17.3497 12.5027 17.8785 13.2069C18.4179 13.9253 18.7346 14.8306 18.9117 15.5377L19.8817 15.2948C19.6906 14.5315 19.333 13.4787 18.6782 12.6065C18.0127 11.7203 17.0203 11 15.6002 11V12ZM13.5565 12.923C14.0569 12.375 14.7108 12 15.6002 12V11C14.3829 11 13.4737 11.5306 12.818 12.2488L13.5565 12.923ZM13.1053 13.0791C15.4058 13.4614 16.3791 15.1801 16.8012 16.639L17.7618 16.361C17.2906 14.7326 16.1191 12.5663 13.2692 12.0927L13.1053 13.0791ZM18.4952 16H17.2815V17H18.4952V16ZM18.9117 15.5377C18.9655 15.7526 18.8077 16 18.4952 16V17C19.3659 17 20.1154 16.2277 19.8817 15.2948L18.9117 15.5377Z" fill="#5D7285"/>
<path d="M11.0131 12.5859L11.0951 13.0791L12.0028 12.9283L11.3824 12.2488L11.0131 12.5859ZM4.80365 15.4162L5.28867 15.5377L4.80365 15.4162ZM6.9189 16.5V17H7.29475L7.3992 16.639L6.9189 16.5ZM8.60021 12C9.48953 12 10.1435 12.375 10.6439 12.923L11.3824 12.2488C10.7267 11.5306 9.81745 11 8.60021 11V12ZM5.28867 15.5377C5.46576 14.8306 5.7825 13.9253 6.32188 13.2069C6.8507 12.5027 7.57248 12 8.60021 12V11C7.18002 11 6.18765 11.7203 5.52221 12.6065C4.86735 13.4787 4.50977 14.5315 4.31863 15.2948L5.28867 15.5377ZM5.7052 16C5.39269 16 5.23487 15.7526 5.28867 15.5377L4.31863 15.2948C4.08499 16.2277 4.83446 17 5.7052 17V16ZM6.9189 16H5.7052V17H6.9189V16ZM7.3992 16.639C7.82126 15.1801 8.79457 13.4614 11.0951 13.0791L10.9311 12.0927C8.08123 12.5663 6.90972 14.7326 6.4386 16.361L7.3992 16.639Z" fill="#5D7285"/>
</svg>
