<svg width="25" height="24" viewBox="0 0 25 24" fill="none" xmlns="http://www.w3.org/2000/svg">
<path d="M10.2998 10H14.2998V14H10.2998V10Z" stroke="#5D7285" stroke-linecap="round" stroke-linejoin="round"/>
<path d="M10.2998 10L6.7998 6.5" stroke="#5D7285" stroke-linecap="round" stroke-linejoin="round"/>
<path d="M10.2597 6C10.1677 5.35657 9.89843 4.75145 9.48194 4.25246C9.06545 3.75346 8.51823 3.3803 7.90161 3.17478C7.28498 2.96926 6.62331 2.93951 5.99073 3.08885C5.35815 3.23819 4.77965 3.56074 4.32005 4.02034C3.86045 4.47993 3.53791 5.05843 3.38856 5.69102C3.23922 6.3236 3.26897 6.98527 3.47449 7.60189C3.68001 8.21852 4.05317 8.76573 4.55217 9.18223C5.05116 9.59872 5.65628 9.86803 6.29971 9.96" stroke="#5D7285" stroke-linecap="round" stroke-linejoin="round"/>
<path d="M14.2998 10L17.7998 6.5" stroke="#5D7285" stroke-linecap="round" stroke-linejoin="round"/>
<path d="M18.2998 9.96C18.9433 9.86803 19.5484 9.59872 20.0474 9.18223C20.5464 8.76573 20.9195 8.21852 21.1251 7.60189C21.3306 6.98527 21.3603 6.3236 21.211 5.69102C21.0616 5.05843 20.7391 4.47993 20.2795 4.02034C19.8199 3.56074 19.2414 3.23819 18.6088 3.08885C17.9762 2.93951 17.3146 2.96926 16.6979 3.17478C16.0813 3.3803 15.5341 3.75346 15.1176 4.25246C14.7011 4.75145 14.4318 5.35657 14.3398 6" stroke="#5D7285" stroke-linecap="round" stroke-linejoin="round"/>
<path d="M14.2998 14L17.7998 17.5" stroke="#5D7285" stroke-linecap="round" stroke-linejoin="round"/>
<path d="M14.3398 18C14.4318 18.6434 14.7011 19.2486 15.1176 19.7476C15.5341 20.2465 16.0813 20.6197 16.6979 20.8252C17.3146 21.0307 17.9762 21.0605 18.6088 20.9112C19.2414 20.7618 19.8199 20.4393 20.2795 19.9797C20.7391 19.5201 21.0616 18.9416 21.211 18.309C21.3603 17.6764 21.3306 17.0147 21.1251 16.3981C20.9195 15.7815 20.5464 15.2343 20.0474 14.8178C19.5484 14.4013 18.9433 14.132 18.2998 14.04" stroke="#5D7285" stroke-linecap="round" stroke-linejoin="round"/>
<path d="M10.2998 14L6.7998 17.5" stroke="#5D7285" stroke-linecap="round" stroke-linejoin="round"/>
<path d="M6.29971 14.04C5.65628 14.132 5.05116 14.4013 4.55217 14.8178C4.05317 15.2343 3.68001 15.7815 3.47449 16.3981C3.26897 17.0147 3.23922 17.6764 3.38856 18.309C3.53791 18.9416 3.86045 19.5201 4.32005 19.9797C4.77965 20.4393 5.35815 20.7618 5.99073 20.9112C6.62331 21.0605 7.28498 21.0307 7.90161 20.8252C8.51823 20.6197 9.06545 20.2465 9.48194 19.7476C9.89843 19.2486 10.1677 18.6434 10.2597 18" stroke="#5D7285" stroke-linecap="round" stroke-linejoin="round"/>
</svg>
