<svg width="24" height="25" viewBox="0 0 24 25" fill="none" xmlns="http://www.w3.org/2000/svg">
<g clip-path="url(#clip0_571_783)">
<path fill-rule="evenodd" clip-rule="evenodd" d="M23.52 12.9372C23.52 12.0863 23.4436 11.2681 23.3018 10.4826H12V15.1244H18.4582C18.18 16.6244 17.3345 17.8954 16.0636 18.7463V21.7572H19.9418C22.2109 19.6681 23.52 16.5917 23.52 12.9372Z" fill="#4285F4"/>
<path fill-rule="evenodd" clip-rule="evenodd" d="M12 24.6644C15.24 24.6644 17.9564 23.5899 19.9418 21.7571L16.0636 18.7462C14.9891 19.4662 13.6145 19.8917 12 19.8917C8.87455 19.8917 6.22909 17.7808 5.28546 14.9444H1.27637V18.0535C3.25091 21.9753 7.30909 24.6644 12 24.6644Z" fill="#34A853"/>
<path fill-rule="evenodd" clip-rule="evenodd" d="M5.28545 14.9444C5.04545 14.2244 4.90909 13.4553 4.90909 12.6644C4.90909 11.8735 5.04545 11.1044 5.28545 10.3844V7.27535H1.27636C0.463636 8.89535 0 10.7281 0 12.6644C0 14.6008 0.463636 16.4335 1.27636 18.0535L5.28545 14.9444Z" fill="#FBBC05"/>
<path fill-rule="evenodd" clip-rule="evenodd" d="M12 5.43716C13.7618 5.43716 15.3436 6.04261 16.5873 7.2317L20.0291 3.78988C17.9509 1.85352 15.2345 0.664429 12 0.664429C7.30909 0.664429 3.25091 3.35352 1.27637 7.27534L5.28546 10.3844C6.22909 7.54807 8.87455 5.43716 12 5.43716Z" fill="#EA4335"/>
</g>
<defs>
<clipPath id="clip0_571_783">
<rect y="0.664429" width="24" height="24" rx="6" fill="white"/>
</clipPath>
</defs>
</svg>
