<svg width="38.64" height="38.64" viewBox="0 0 39 40" fill="none" xmlns="http://www.w3.org/2000/svg">
<path d="M17.3179 18.1821H21.3179V22.1821H17.3179V18.1821Z" stroke="#222222" stroke-width="2" stroke-linecap="round" stroke-linejoin="round"/>
<path d="M17.3179 18.1821L13.8179 14.6821" stroke="#222222" stroke-width="2" stroke-linecap="round" stroke-linejoin="round"/>
<path d="M17.2778 14.1822C17.1858 13.5387 16.9165 12.9336 16.5 12.4346C16.0835 11.9356 15.5363 11.5625 14.9197 11.3569C14.303 11.1514 13.6414 11.1217 13.0088 11.271C12.3762 11.4204 11.7977 11.7429 11.3381 12.2025C10.8785 12.6621 10.556 13.2406 10.4066 13.8732C10.2573 14.5058 10.287 15.1674 10.4926 15.7841C10.6981 16.4007 11.0712 16.9479 11.5702 17.3644C12.0692 17.7809 12.6743 18.0502 13.3178 18.1422" stroke="#222222" stroke-width="2" stroke-linecap="round" stroke-linejoin="round"/>
<path d="M21.3179 18.1821L24.8179 14.6821" stroke="#222222" stroke-width="2" stroke-linecap="round" stroke-linejoin="round"/>
<path d="M25.3179 18.1422C25.9613 18.0502 26.5665 17.7809 27.0655 17.3644C27.5644 16.9479 27.9376 16.4007 28.1431 15.7841C28.3486 15.1674 28.3784 14.5058 28.2291 13.8732C28.0797 13.2406 27.7572 12.6621 27.2976 12.2025C26.838 11.7429 26.2595 11.4204 25.6269 11.271C24.9943 11.1217 24.3326 11.1514 23.716 11.3569C23.0994 11.5625 22.5522 11.9356 22.1357 12.4346C21.7192 12.9336 21.4499 13.5387 21.3579 14.1822" stroke="#222222" stroke-width="2" stroke-linecap="round" stroke-linejoin="round"/>
<path d="M21.3179 22.1821L24.8179 25.6821" stroke="#222222" stroke-width="2" stroke-linecap="round" stroke-linejoin="round"/>
<path d="M21.3579 26.1822C21.4499 26.8256 21.7192 27.4307 22.1357 27.9297C22.5522 28.4287 23.0994 28.8019 23.716 29.0074C24.3326 29.2129 24.9943 29.2427 25.6269 29.0933C26.2595 28.944 26.838 28.6214 27.2976 28.1618C27.7572 27.7022 28.0797 27.1237 28.2291 26.4912C28.3784 25.8586 28.3486 25.1969 28.1431 24.5803C27.9376 23.9636 27.5644 23.4164 27.0655 22.9999C26.5665 22.5834 25.9613 22.3141 25.3179 22.2222" stroke="#222222" stroke-width="2" stroke-linecap="round" stroke-linejoin="round"/>
<path d="M17.3179 22.1821L13.8179 25.6821" stroke="#222222" stroke-width="2" stroke-linecap="round" stroke-linejoin="round"/>
<path d="M13.3178 22.2222C12.6743 22.3141 12.0692 22.5834 11.5702 22.9999C11.0712 23.4164 10.6981 23.9636 10.4926 24.5803C10.287 25.1969 10.2573 25.8586 10.4066 26.4912C10.556 27.1237 10.8785 27.7022 11.3381 28.1618C11.7977 28.6214 12.3762 28.944 13.0088 29.0933C13.6414 29.2427 14.303 29.2129 14.9197 29.0074C15.5363 28.8019 16.0835 28.4287 16.5 27.9297C16.9165 27.4307 17.1858 26.8256 17.2778 26.1822" stroke="#222222" stroke-width="2" stroke-linecap="round" stroke-linejoin="round"/>
</svg>
