<svg width="30" height="30" viewBox="0 0 30 30" fill="none" xmlns="http://www.w3.org/2000/svg">
<circle cx="15" cy="15" r="15" fill="#CEFFD9"/>
<path d="M15 12.006H14.9999C14.6265 12.006 14.2613 12.113 13.9505 12.3137C13.6398 12.5144 13.3973 12.7998 13.254 13.134C13.1107 13.4683 13.0732 13.8362 13.1463 14.1912C13.2194 14.5461 13.3996 14.8719 13.6641 15.1275C13.9285 15.383 14.2652 15.5569 14.6315 15.6273C14.9978 15.6977 15.3775 15.6616 15.7226 15.5234C16.0678 15.3852 16.363 15.1512 16.5709 14.8505C16.7788 14.5498 16.8899 14.1961 16.8899 13.8342V13.8341C16.8893 13.3489 16.6896 12.8841 16.3351 12.5415C15.9807 12.199 15.5005 12.0066 15 12.006ZM14.9998 14.6733C14.8274 14.6733 14.659 14.6238 14.5159 14.5314C14.3728 14.439 14.2615 14.3079 14.1959 14.1547C14.1303 14.0016 14.1131 13.8332 14.1466 13.6708C14.18 13.5084 14.2626 13.3589 14.3841 13.2415C14.5057 13.124 14.6608 13.0438 14.8299 13.0113C14.999 12.9788 15.1742 12.9955 15.3334 13.0592C15.4926 13.1229 15.6283 13.2307 15.7237 13.3687C15.8191 13.5066 15.8699 13.6686 15.8699 13.8341C15.8696 14.056 15.7783 14.2691 15.6154 14.4266C15.4524 14.5841 15.2311 14.673 14.9998 14.6733Z" fill="#00B428" stroke="#00B428" stroke-width="0.1"/>
<path d="M10.7688 16.4972L10.7688 16.4972L14.2448 21.6542C14.3269 21.776 14.439 21.8758 14.5708 21.9448C14.7026 22.0139 14.8501 22.05 14.9998 22.05C15.1495 22.05 15.297 22.0139 15.4288 21.9448C15.5606 21.8758 15.6727 21.776 15.7547 21.6542L19.2309 16.4972C19.8634 15.5589 20.143 14.4388 20.0227 13.3247C19.9023 12.2106 19.3894 11.1706 18.5702 10.3789L18.5355 10.4149L18.5702 10.3789C17.6872 9.52576 16.5087 9.0192 15.2623 8.95658C14.016 8.89397 12.7896 9.2797 11.8199 10.0397C10.8501 10.7997 10.2057 11.8803 10.0114 13.073C9.81722 14.2658 10.0871 15.4857 10.7688 16.4972ZM18.3772 15.956L14.9998 20.9664L11.6224 15.956C10.5896 14.4238 10.8109 12.373 12.1494 11.0795C12.5236 10.7179 12.9678 10.431 13.4569 10.2352C13.946 10.0394 14.4703 9.93861 14.9998 9.93861C15.5293 9.93861 16.0536 10.0394 16.5427 10.2352C17.0318 10.431 17.476 10.7179 17.8502 11.0795C19.1887 12.373 19.4099 14.4238 18.3772 15.956Z" fill="#00B428" stroke="#00B428" stroke-width="0.1"/>
</svg>
