<svg width="25" height="24" viewBox="0 0 25 24" fill="none" xmlns="http://www.w3.org/2000/svg">
<path d="M20.4001 6L18.9335 7.1C18.5873 7.35964 18.1662 7.5 17.7335 7.5H14.3751C13.7776 7.5 13.2313 7.83761 12.9641 8.37206V8.37206C12.6343 9.03161 12.8055 9.83161 13.3762 10.2986L15.3761 11.9349C16.9501 13.2227 17.7646 15.22 17.54 17.2412L17.5201 17.4206C17.4405 18.1369 17.2645 18.8392 16.9968 19.5083L16.4001 21" stroke="#5D7285"/>
<path d="M3.40015 10.5L6.63824 9.96032C7.99189 9.73471 9.16544 10.9083 8.93983 12.2619L8.80532 13.069C8.56449 14.514 9.29425 15.9471 10.6045 16.6022V16.6022C11.6537 17.1268 12.1977 18.3097 11.9132 19.4476L11.4001 21.5" stroke="#5D7285"/>
<circle cx="12.9001" cy="12" r="9.5" stroke="#5D7285"/>
</svg>
