<svg width="25" height="24" viewBox="0 0 25 24" fill="none" xmlns="http://www.w3.org/2000/svg">
<path d="M20.3999 6L18.9332 7.1C18.587 7.35964 18.166 7.5 17.7332 7.5H14.3749C13.7774 7.5 13.2311 7.83761 12.9639 8.37206V8.37206C12.6341 9.03161 12.8052 9.83161 13.3759 10.2986L15.3759 11.9349C16.9498 13.2227 17.7643 15.22 17.5398 17.2412L17.5198 17.4206C17.4402 18.1369 17.2642 18.8392 16.9966 19.5083L16.3999 21" stroke="#4285F4"/>
<path d="M3.3999 10.5L6.638 9.96032C7.99164 9.73471 9.16519 10.9083 8.93959 12.2619L8.80507 13.069C8.56424 14.514 9.294 15.9471 10.6043 16.6022V16.6022C11.6534 17.1268 12.1975 18.3097 11.913 19.4476L11.3999 21.5" stroke="#4285F4"/>
<circle cx="12.8999" cy="12" r="9.5" stroke="#4285F4"/>
</svg>
