<svg width="191" height="58" viewBox="0 0 191 58" fill="none" xmlns="http://www.w3.org/2000/svg">
<path d="M31.6882 3.65065C27.7975 1.39255 22.9962 1.38798 19.1012 3.63868L0.486328 14.3952L25.3982 28.8319L32.3503 24.8079L12.9422 14.3952L31.6882 3.65065Z" fill="#00AEEF"/>
<path d="M0.486328 14.3947C0.486328 18.8837 2.80408 23.0545 6.61602 25.4251L8.82476 26.7987C14.0103 30.0235 17.1632 35.6971 17.1632 41.8036V44.6371L0.486328 36.0498C0.486328 40.4919 2.85242 44.5978 6.69585 46.8251L25.3982 57.6633V28.8314L0.486328 14.3947Z" fill="#252525"/>
<path d="M32.3491 24.8086V45.6077C32.3491 50.5792 29.6997 55.174 25.397 57.6644V28.8326L32.3491 24.8086Z" fill="#0081C0"/>
<path d="M0.486328 36.0507C3.79853 34.1203 7.88039 34.0676 11.2413 35.9121L17.1632 39.1621V44.6381L0.486328 36.0507Z" fill="#00375A"/>
<path d="M31.6893 3.65015C31.6893 7.43651 29.6262 10.9221 26.3068 12.7436L18.1575 17.2156L12.9434 14.3947L31.6893 3.65015Z" fill="#0081C0"/>
<path d="M33.1791 4.43951L41.8279 9.25174L50.4767 14.1054C50.6988 14.2353 50.6988 14.5563 50.4767 14.6862L46.3799 17.1338C45.0143 17.9635 43.6487 18.7517 42.2417 19.4985C40.8347 20.2867 39.4691 21.0334 38.0621 21.7801C36.6551 22.5268 35.2482 23.2736 33.7998 23.9373L33.7584 23.8544C35.0826 22.9417 36.4069 22.112 37.7725 21.2408C39.0967 20.3696 40.4623 19.5814 41.8279 18.7517C43.1935 17.922 44.5591 17.1338 45.966 16.3456L50.1456 14.1054V14.6862L41.621 9.6251L33.1377 4.52248L33.1791 4.43951Z" fill="#0581C0"/>
<path d="M33.2616 9.37595L44.4347 16.0965L33.0547 9.74931L33.2616 9.37595Z" fill="#0581C0"/>
<path d="M33.6772 29.7034L41.9122 24.7668L46.0504 22.3192C47.416 21.531 48.823 20.7013 50.23 19.9131L50.4782 19.7886V20.079L50.4369 31.6532L50.3541 43.2275H50.3127L50.23 31.6532L50.1472 20.079L50.3955 20.2449C49.0299 21.0746 47.6643 21.9043 46.2573 22.6925L42.0777 25.0572L33.6772 29.7034Z" fill="#0581C0"/>
<path d="M46.7498 23.9785L46.5428 44.6378L46.3359 23.9785H46.7498Z" fill="#0581C0"/>
<path d="M180.753 38.69C180.538 38.69 180.355 38.6238 180.206 38.4913C180.074 38.3423 180.008 38.1602 180.008 37.945V20.0393C180.008 19.8241 180.074 19.6502 180.206 19.5178C180.355 19.3688 180.538 19.2943 180.753 19.2943H189.594C189.793 19.2943 189.966 19.3688 190.115 19.5178C190.264 19.6502 190.339 19.8241 190.339 20.0393C190.339 20.238 190.264 20.4118 190.115 20.5608C189.966 20.7098 189.793 20.7843 189.594 20.7843H181.498V28.2347H186.614C186.829 28.2347 187.003 28.3092 187.135 28.4582C187.284 28.5906 187.359 28.7645 187.359 28.9797C187.359 29.1949 187.284 29.3771 187.135 29.5261C187.003 29.6751 186.829 29.7496 186.614 29.7496H181.498V37.1999H189.594C189.793 37.1999 189.966 37.2744 190.115 37.4234C190.264 37.5724 190.339 37.7463 190.339 37.945C190.339 38.1602 190.264 38.3423 190.115 38.4913C189.966 38.6238 189.793 38.69 189.594 38.69H180.753Z" fill="#252525"/>
<path fill-rule="evenodd" clip-rule="evenodd" d="M180.081 38.6157L180.074 38.6081C179.911 38.4243 179.832 38.1998 179.832 37.9454V20.0397C179.832 19.7856 179.911 19.5646 180.081 19.3944C180.264 19.2118 180.491 19.1196 180.752 19.1196H189.593C189.839 19.1196 190.055 19.2135 190.234 19.3908C190.421 19.5589 190.513 19.7807 190.513 20.0397C190.513 20.2879 190.418 20.5054 190.238 20.685C190.058 20.8647 189.841 20.9598 189.593 20.9598H181.672V28.06H186.613C186.87 28.06 187.09 28.1502 187.258 28.3347C187.443 28.5024 187.533 28.7229 187.533 28.9801C187.533 29.239 187.442 29.4647 187.261 29.6467C187.093 29.8337 186.872 29.9251 186.613 29.9251H181.672V37.0253H189.593C189.841 37.0253 190.058 37.1205 190.238 37.3001C190.418 37.4797 190.513 37.6973 190.513 37.9454C190.513 38.2059 190.421 38.4329 190.238 38.6155L190.234 38.6192L190.231 38.6226C190.05 38.7834 189.834 38.8655 189.593 38.8655H180.752C180.497 38.8655 180.273 38.7859 180.089 38.6226L180.081 38.6157ZM181.497 37.2004V29.75H186.613C186.828 29.75 187.002 29.6755 187.134 29.5265C187.283 29.3775 187.358 29.1954 187.358 28.9801C187.358 28.7649 187.283 28.5911 187.134 28.4586C187.002 28.3096 186.828 28.2351 186.613 28.2351H181.497V20.7848H189.593C189.791 20.7848 189.965 20.7103 190.114 20.5612C190.263 20.4122 190.338 20.2384 190.338 20.0397C190.338 19.8245 190.263 19.6506 190.114 19.5182C189.965 19.3692 189.791 19.2947 189.593 19.2947H180.752C180.536 19.2947 180.354 19.3692 180.205 19.5182C180.073 19.6506 180.007 19.8245 180.007 20.0397V37.9454C180.007 38.1606 180.073 38.3427 180.205 38.4917C180.354 38.6242 180.536 38.6904 180.752 38.6904H189.593C189.791 38.6904 189.965 38.6242 190.114 38.4917C190.263 38.3427 190.338 38.1606 190.338 37.9454C190.338 37.7467 190.263 37.5729 190.114 37.4239C189.965 37.2749 189.791 37.2004 189.593 37.2004H181.497Z" fill="#252525"/>
<path d="M159.215 38.69C159 38.69 158.818 38.6238 158.669 38.4913C158.536 38.3423 158.47 38.1602 158.47 37.945V20.0393C158.47 19.8075 158.536 19.6254 158.669 19.4929C158.818 19.3605 159 19.2943 159.215 19.2943H169.118C170.542 19.2943 171.842 19.5343 173.017 20.0145C174.209 20.478 175.236 21.1486 176.096 22.026C176.974 22.887 177.645 23.9052 178.108 25.0807C178.588 26.2562 178.828 27.5559 178.828 28.9797C178.828 30.4035 178.588 31.7115 178.108 32.9035C177.645 34.079 176.974 35.1055 176.096 35.983C175.236 36.844 174.209 37.5145 173.017 37.9946C171.842 38.4582 170.542 38.69 169.118 38.69H159.215ZM159.96 37.3489H169.118C170.724 37.3489 172.14 36.9847 173.365 36.2562C174.606 35.5277 175.575 34.5343 176.27 33.2761C176.982 32.0178 177.338 30.5857 177.338 28.9797C177.338 27.3737 176.982 25.9499 176.27 24.7082C175.575 23.4499 174.606 22.4565 173.365 21.728C172.14 20.9996 170.724 20.6353 169.118 20.6353H159.96V37.3489Z" fill="#252525"/>
<path fill-rule="evenodd" clip-rule="evenodd" d="M158.547 38.6157L158.54 38.6081C158.376 38.4243 158.297 38.1998 158.297 37.9454V20.0397C158.297 19.7732 158.374 19.5423 158.547 19.3696L158.55 19.3659L158.554 19.3625C158.738 19.1992 158.963 19.1196 159.217 19.1196H169.12C170.563 19.1196 171.885 19.3629 173.084 19.8523C174.297 20.3242 175.344 21.0077 176.222 21.9027C177.117 22.7808 177.8 23.8192 178.272 25.0159C178.762 26.2145 179.005 27.5367 179.005 28.9801C179.005 30.4238 178.762 31.754 178.272 32.9689C177.8 34.166 177.117 35.2126 176.222 36.1073C175.343 36.9858 174.297 37.669 173.084 38.1574L173.083 38.1579C171.885 38.6305 170.563 38.8655 169.12 38.8655H159.217C158.963 38.8655 158.738 38.7859 158.554 38.6226L158.547 38.6157ZM173.019 20.0149C171.843 19.5348 170.544 19.2947 169.12 19.2947H159.217C159.002 19.2947 158.82 19.3609 158.671 19.4934C158.538 19.6258 158.472 19.8079 158.472 20.0397V37.9454C158.472 38.1606 158.538 38.3427 158.671 38.4917C158.82 38.6242 159.002 38.6904 159.217 38.6904H169.12C170.544 38.6904 171.843 38.4586 173.019 37.9951C174.211 37.5149 175.237 36.8444 176.098 35.9835C176.976 35.106 177.646 34.0795 178.11 32.904C178.59 31.7119 178.83 30.404 178.83 28.9801C178.83 27.5563 178.59 26.2566 178.11 25.0811C177.646 23.9056 176.976 22.8874 176.098 22.0265C175.237 21.149 174.211 20.4785 173.019 20.0149ZM173.277 36.1062L173.278 36.1056C174.492 35.3931 175.439 34.4226 176.119 33.1918L176.12 33.1903C176.815 31.9611 177.165 30.5593 177.165 28.9801C177.165 27.4009 176.815 26.0078 176.12 24.7957L176.12 24.7945L176.119 24.7933C175.439 23.5625 174.492 22.5921 173.278 21.8795L173.277 21.8789C172.082 21.1685 170.698 20.8108 169.12 20.8108H160.137V37.1743H169.12C170.698 37.1743 172.082 36.8166 173.277 36.1062ZM159.962 37.3494V20.6358H169.12C170.726 20.6358 172.141 21 173.366 21.7285C174.608 22.4569 175.577 23.4503 176.272 24.7086C176.984 25.9503 177.34 27.3742 177.34 28.9801C177.34 30.5861 176.984 32.0182 176.272 33.2765C175.577 34.5348 174.608 35.5282 173.366 36.2566C172.141 36.9851 170.726 37.3494 169.12 37.3494H159.962Z" fill="#252525"/>
<path d="M141.475 38.69C141.161 38.69 140.937 38.5658 140.805 38.3175C140.689 38.0691 140.689 37.8373 140.805 37.6221L148.33 19.8158C148.462 19.4681 148.702 19.2943 149.05 19.2943C149.381 19.2943 149.621 19.4681 149.77 19.8158L157.32 37.6221C157.452 37.8539 157.444 38.094 157.295 38.3423C157.146 38.5741 156.931 38.69 156.649 38.69C156.484 38.69 156.343 38.6569 156.227 38.5906C156.128 38.5079 156.037 38.3837 155.954 38.2181L148.652 20.8092H149.447L142.171 38.2181C142.104 38.3837 142.013 38.5079 141.897 38.5906C141.782 38.6569 141.641 38.69 141.475 38.69ZM143.313 38.6729L143.909 37.3318H154.24L154.811 38.6729H143.313Z" fill="#252525"/>
<path fill-rule="evenodd" clip-rule="evenodd" d="M140.647 38.3962L140.645 38.3919C140.51 38.1032 140.504 37.8153 140.645 37.5472L148.166 19.7509C148.241 19.5547 148.352 19.3942 148.505 19.2833C148.66 19.1712 148.844 19.1196 149.049 19.1196C149.246 19.1196 149.426 19.1722 149.58 19.2833C149.731 19.3932 149.846 19.5522 149.93 19.7473L149.93 19.7479L157.476 37.5451C157.637 37.8346 157.62 38.139 157.444 38.4328L157.442 38.4351L157.441 38.4374C157.259 38.7206 156.987 38.8655 156.648 38.8655C156.459 38.8655 156.287 38.8277 156.139 38.7431L156.125 38.7354L156.114 38.7256C155.99 38.6222 155.885 38.4754 155.796 38.2969L155.793 38.2916L149.049 22.2119L142.332 38.2836C142.332 38.284 142.332 38.2844 142.331 38.2849C142.256 38.4731 142.147 38.6272 141.998 38.7335L141.991 38.7387L141.983 38.7431C141.835 38.8277 141.663 38.8655 141.474 38.8655C141.294 38.8655 141.129 38.8298 140.985 38.7503C140.841 38.6702 140.729 38.5511 140.649 38.4003L140.647 38.3962ZM142.169 38.2186L149.049 21.7586L155.953 38.2186C156.035 38.3841 156.126 38.5083 156.226 38.5911C156.342 38.6573 156.482 38.6904 156.648 38.6904C156.929 38.6904 157.145 38.5745 157.294 38.3427C157.443 38.0944 157.451 37.8543 157.318 37.6225L149.769 19.8162C149.62 19.4685 149.38 19.2947 149.049 19.2947C148.701 19.2947 148.461 19.4685 148.328 19.8162L140.803 37.6225C140.688 37.8378 140.688 38.0696 140.803 38.3179C140.936 38.5663 141.159 38.6904 141.474 38.6904C141.64 38.6904 141.78 38.6573 141.896 38.5911C142.012 38.5083 142.103 38.3841 142.169 38.2186ZM143.042 38.8484L143.794 37.1572H154.355L155.075 38.8484H143.042ZM143.312 38.6734H154.81L154.239 37.3323H143.908L143.312 38.6734Z" fill="#252525"/>
<path d="M128.378 38.69C128.163 38.69 127.981 38.6238 127.832 38.4913C127.7 38.3423 127.633 38.1602 127.633 37.945V20.0393C127.633 19.8075 127.7 19.6254 127.832 19.4929C127.981 19.3605 128.163 19.2943 128.378 19.2943H133.122C134.33 19.2943 135.398 19.5509 136.325 20.0641C137.269 20.5608 138.006 21.2479 138.536 22.1254C139.065 23.0029 139.33 24.0211 139.33 25.18C139.33 26.3059 139.065 27.3075 138.536 28.185C138.006 29.0625 137.269 29.7496 136.325 30.2463C135.398 30.7429 134.33 30.9913 133.122 30.9913H129.123V37.945C129.123 38.1602 129.057 38.3423 128.925 38.4913C128.792 38.6238 128.61 38.69 128.378 38.69ZM138.809 38.69C138.627 38.69 138.486 38.6569 138.387 38.5906C138.304 38.5079 138.221 38.4085 138.138 38.2926L133.196 30.3953L134.736 30.0476L139.43 37.5476C139.645 37.8787 139.686 38.1519 139.554 38.3671C139.438 38.5824 139.19 38.69 138.809 38.69ZM129.123 29.5012H133.122C134.049 29.5012 134.86 29.3191 135.556 28.9549C136.267 28.5741 136.822 28.0608 137.219 27.4151C137.633 26.7694 137.84 26.0244 137.84 25.18C137.84 24.3191 137.633 23.5575 137.219 22.8953C136.822 22.233 136.267 21.7198 135.556 21.3555C134.86 20.9747 134.049 20.7843 133.122 20.7843H129.123V29.5012Z" fill="#252525"/>
<path fill-rule="evenodd" clip-rule="evenodd" d="M127.707 38.6157L127.7 38.6081C127.537 38.4243 127.458 38.1998 127.458 37.9454V20.0397C127.458 19.7732 127.535 19.5423 127.707 19.3696L127.711 19.3659L127.715 19.3625C127.899 19.1992 128.123 19.1196 128.378 19.1196H133.121C134.354 19.1196 135.452 19.3816 136.408 19.9105C137.378 20.4214 138.138 21.1299 138.685 22.0353C139.233 22.9436 139.505 23.9939 139.505 25.1805C139.505 26.335 139.233 27.3685 138.685 28.2759C138.138 29.1816 137.377 29.8904 136.407 30.4013C136.095 30.5685 135.767 30.7082 135.425 30.8204L139.577 37.4539C139.804 37.8043 139.887 38.1547 139.705 38.455C139.543 38.7512 139.212 38.8655 138.808 38.8655C138.608 38.8655 138.428 38.8298 138.289 38.7367L138.274 38.7271L138.262 38.7149C138.171 38.624 138.082 38.5169 137.995 38.3948L137.992 38.3905L133.467 31.16C133.353 31.1645 133.238 31.1668 133.121 31.1668H129.298V37.9454C129.298 38.1998 129.218 38.4243 129.055 38.6081L129.051 38.6119L129.048 38.6155C128.875 38.7882 128.644 38.8655 128.378 38.8655C128.123 38.8655 127.899 38.7859 127.715 38.6226L127.707 38.6157ZM129.123 30.9917H133.121C133.201 30.9917 133.281 30.9906 133.36 30.9884C133.428 30.9866 133.495 30.9839 133.561 30.9804L138.138 38.2931C138.22 38.409 138.303 38.5083 138.386 38.5911C138.485 38.6573 138.626 38.6904 138.808 38.6904C139.189 38.6904 139.437 38.5828 139.553 38.3676C139.686 38.1523 139.644 37.8792 139.429 37.548L135.156 30.7202C135.214 30.7034 135.272 30.6858 135.329 30.6674C135.677 30.5559 136.009 30.4157 136.325 30.2467C137.268 29.75 138.005 29.0629 138.535 28.1854C139.065 27.308 139.33 26.3063 139.33 25.1805C139.33 24.0215 139.065 23.0033 138.535 22.1258C138.005 21.2483 137.268 20.5612 136.325 20.0646C135.397 19.5513 134.33 19.2947 133.121 19.2947H128.378C128.162 19.2947 127.98 19.3609 127.831 19.4934C127.699 19.6258 127.633 19.8079 127.633 20.0397V37.9454C127.633 38.1606 127.699 38.3427 127.831 38.4917C127.98 38.6242 128.162 38.6904 128.378 38.6904C128.609 38.6904 128.792 38.6242 128.924 38.4917C129.056 38.3427 129.123 38.1606 129.123 37.9454V30.9917ZM137.07 27.3224L137.071 27.3211C137.465 26.7064 137.664 25.9948 137.664 25.1805C137.664 24.3489 137.465 23.6201 137.07 22.9885L137.069 22.9871L137.069 22.9858C136.689 22.3526 136.159 21.8617 135.475 21.5118L135.473 21.5107L135.471 21.5095C134.805 21.145 134.024 20.9598 133.121 20.9598H129.298V29.3266H133.121C134.025 29.3266 134.807 29.1493 135.473 28.8006C136.159 28.4334 136.69 27.9412 137.07 27.3238L137.07 27.3224ZM135.555 28.9553C134.859 29.3195 134.048 29.5017 133.121 29.5017H129.123V20.7848H133.121C134.048 20.7848 134.859 20.9752 135.555 21.356C136.267 21.7202 136.821 22.2334 137.219 22.8957C137.633 23.5579 137.84 24.3195 137.84 25.1805C137.84 26.0248 137.633 26.7699 137.219 27.4156C136.821 28.0613 136.267 28.5745 135.555 28.9553Z" fill="#252525"/>
<path d="M117.066 38.69C116.851 38.69 116.669 38.6238 116.52 38.4913C116.387 38.3423 116.321 38.1602 116.321 37.945V19.2943H117.811V37.945C117.811 38.1602 117.736 38.3423 117.587 38.4913C117.455 38.6238 117.281 38.69 117.066 38.69ZM110.038 20.6353C109.839 20.6353 109.673 20.5774 109.541 20.4615C109.425 20.329 109.367 20.1635 109.367 19.9648C109.367 19.7661 109.425 19.6088 109.541 19.4929C109.673 19.3605 109.839 19.2943 110.038 19.2943H128.751C128.949 19.2943 129.106 19.3605 129.222 19.4929C129.355 19.6088 129.421 19.7661 129.421 19.9648C129.421 20.1635 129.355 20.329 129.222 20.4615C129.106 20.5774 128.949 20.6353 128.751 20.6353H110.038Z" fill="#252525"/>
<path fill-rule="evenodd" clip-rule="evenodd" d="M116.397 38.6157L116.39 38.6081C116.227 38.4243 116.148 38.1998 116.148 37.9454V20.8108H110.039C109.804 20.8108 109.596 20.7411 109.427 20.5937L109.419 20.586L109.411 20.5772C109.264 20.4087 109.194 20.2005 109.194 19.9652C109.194 19.7306 109.263 19.5251 109.419 19.3696C109.586 19.2022 109.797 19.1196 110.039 19.1196H128.752C128.99 19.1196 129.195 19.1998 129.348 19.3694C129.518 19.5222 129.598 19.7274 129.598 19.9652C129.598 20.2072 129.515 20.4183 129.348 20.5857L129.224 20.4619C129.357 20.3295 129.423 20.1639 129.423 19.9652C129.423 19.7665 129.357 19.6093 129.224 19.4934C129.108 19.3609 128.951 19.2947 128.752 19.2947H110.039C109.841 19.2947 109.675 19.3609 109.543 19.4934C109.427 19.6093 109.369 19.7665 109.369 19.9652C109.369 20.1639 109.427 20.3295 109.543 20.4619C109.675 20.5778 109.841 20.6358 110.039 20.6358H116.323V37.9454C116.323 38.1606 116.389 38.3427 116.521 38.4917C116.67 38.6242 116.852 38.6904 117.068 38.6904C117.283 38.6904 117.457 38.6242 117.589 38.4917C117.738 38.3427 117.813 38.1606 117.813 37.9454V20.6358H128.752C128.951 20.6358 129.108 20.5778 129.224 20.4619L129.348 20.5857C129.192 20.7412 128.987 20.8108 128.752 20.8108H117.988V37.9454C117.988 38.2059 117.896 38.4329 117.713 38.6155C117.543 38.7858 117.322 38.8655 117.068 38.8655C116.813 38.8655 116.589 38.7859 116.405 38.6226L116.397 38.6157Z" fill="#252525"/>
<path d="M102.327 38.5262C101.979 38.5262 101.681 38.402 101.433 38.1537C101.185 37.9053 101.061 37.599 101.061 37.2348V31.4484L94.4298 21.1421C94.2146 20.7944 94.1318 20.4715 94.1814 20.1735C94.2311 19.8589 94.3718 19.6106 94.6036 19.4285C94.852 19.2298 95.1334 19.1305 95.448 19.1305C95.7295 19.1305 95.953 19.1967 96.1185 19.3291C96.2841 19.445 96.4414 19.6189 96.5904 19.8507L102.898 29.859H101.905L108.312 19.7513C108.445 19.5526 108.602 19.4036 108.784 19.3043C108.966 19.1884 109.19 19.1305 109.455 19.1305C109.753 19.1305 110.001 19.2381 110.2 19.4533C110.398 19.652 110.514 19.9086 110.547 20.2232C110.58 20.5212 110.498 20.8275 110.299 21.1421L103.619 31.4484V37.2348C103.619 37.599 103.494 37.9053 103.246 38.1537C102.998 38.402 102.691 38.5262 102.327 38.5262Z" fill="#00AEEF"/>
<path d="M84.3114 38.5262C83.9637 38.5262 83.6574 38.402 83.3925 38.1537C83.1442 37.9053 83.02 37.599 83.02 37.2348V20.4219C83.02 20.0576 83.1442 19.7513 83.3925 19.503C83.6574 19.2546 83.9637 19.1305 84.3114 19.1305C84.6757 19.1305 84.9819 19.2546 85.2303 19.503C85.4786 19.7513 85.6028 20.0576 85.6028 20.4219V27.8722L93.823 19.652C94.0217 19.4533 94.2038 19.3209 94.3694 19.2546C94.5349 19.1719 94.7088 19.1305 94.8909 19.1305C95.3048 19.1305 95.6028 19.2546 95.7849 19.503C95.9671 19.7513 96.0333 20.0493 95.9836 20.397C95.934 20.7281 95.7767 21.0344 95.5118 21.3159L89.179 27.6735L95.6359 36.4649C95.8346 36.7464 95.9174 37.0527 95.8843 37.3838C95.8512 37.6984 95.7353 37.9716 95.5366 38.2033C95.3379 38.4186 95.073 38.5262 94.7419 38.5262C94.2783 38.5262 93.9224 38.3441 93.674 37.9798L87.3909 29.4616L85.6028 31.2497V37.2348C85.6028 37.599 85.4786 37.9053 85.2303 38.1537C84.9819 38.402 84.6757 38.5262 84.3114 38.5262Z" fill="#00AEEF"/>
<path d="M72.9798 38.7752C71.9202 38.7752 70.9102 38.6096 69.95 38.2785C68.9897 37.9473 68.1536 37.4838 67.4417 36.8877C66.7298 36.2917 66.2082 35.6046 65.8771 34.8265C65.7115 34.4788 65.7115 34.1559 65.8771 33.8579C66.0592 33.5599 66.3572 33.3695 66.7711 33.2867C67.0692 33.2205 67.3589 33.2702 67.6404 33.4357C67.9384 33.5847 68.1619 33.8165 68.3109 34.1311C68.5096 34.545 68.8324 34.9258 69.2794 35.2735C69.743 35.6212 70.2976 35.9026 70.9433 36.1179C71.589 36.3331 72.2678 36.4407 72.9798 36.4407C73.7745 36.4407 74.5029 36.3165 75.1652 36.0682C75.844 35.8198 76.3904 35.4639 76.8043 35.0003C77.2182 34.5202 77.4251 33.9324 77.4251 33.2371C77.4251 32.3596 77.0775 31.5732 76.3821 30.8778C75.7033 30.1824 74.5775 29.752 73.0046 29.5864C70.9516 29.3877 69.3374 28.7834 68.1619 27.7735C66.9864 26.7635 66.3986 25.5135 66.3986 24.0235C66.3986 22.9307 66.7049 22.0036 67.3175 21.242C67.9301 20.4804 68.7579 19.9009 69.801 19.5036C70.8606 19.1062 72.0361 18.9076 73.3274 18.9076C74.3374 18.9076 75.2149 19.0483 75.9599 19.3297C76.7215 19.6112 77.3837 20.0003 77.9467 20.497C78.5096 20.9937 78.998 21.5814 79.4119 22.2602C79.6437 22.6245 79.7347 22.9721 79.6851 23.3033C79.652 23.6178 79.4947 23.8662 79.2132 24.0483C78.8987 24.247 78.5592 24.2884 78.195 24.1725C77.8308 24.0566 77.5576 23.8413 77.3755 23.5268C77.1106 23.0466 76.7877 22.641 76.4069 22.3099C76.0261 21.9788 75.5791 21.7221 75.0659 21.54C74.5526 21.3413 73.9483 21.242 73.2529 21.242C72.0278 21.2254 71.0013 21.4572 70.1735 21.9374C69.3457 22.4009 68.9317 23.1211 68.9317 24.098C68.9317 24.5947 69.0559 25.0748 69.3043 25.5384C69.5692 25.9854 70.041 26.3745 70.7198 26.7056C71.4152 27.0367 72.4086 27.2685 73.7 27.401C75.6702 27.5996 77.2016 28.2039 78.2943 29.2139C79.4036 30.2073 79.9583 31.5235 79.9583 33.1626C79.9583 34.1063 79.7596 34.9258 79.3622 35.6212C78.9814 36.3165 78.4599 36.9043 77.7977 37.3844C77.152 37.848 76.4069 38.1957 75.5626 38.4275C74.7347 38.6593 73.8738 38.7752 72.9798 38.7752Z" fill="#00AEEF"/>
</svg>
