<svg width="27" height="32" viewBox="0 0 27 32" fill="none" xmlns="http://www.w3.org/2000/svg">
<path d="M13.6017 15.4999L18.6331 10.3864C18.8247 10.1918 18.9327 9.92474 18.9327 9.646C18.9327 9.36727 18.8247 9.10025 18.6331 8.90565L13.1117 3.29413C12.8258 3.00356 12.4006 2.91999 12.0325 3.08114C11.6644 3.24275 11.425 3.61839 11.425 4.03448L11.425 13.2879L6.75402 8.54071C6.36141 8.14174 5.73277 8.14967 5.34965 8.55864C4.96664 8.96761 4.97437 9.62255 5.36698 10.0215L10.7575 15.5001L5.36698 20.9786C4.97437 21.3775 4.96664 22.0325 5.34965 22.4415C5.73266 22.8504 6.36152 22.8585 6.75402 22.4594L11.425 17.7122L11.425 26.9656C11.425 27.3817 11.6644 27.7573 12.0325 27.919C12.157 27.9737 12.2879 28.0001 12.4179 28.0001C12.6723 28.0001 12.9224 27.8983 13.1117 27.706L18.6331 22.0944C18.8247 21.8999 18.9327 21.6328 18.9327 21.3541C18.9327 21.0754 18.8247 20.8084 18.6331 20.6138L13.6017 15.4999ZM13.4114 6.48898L16.5176 9.64589L13.4114 12.8028L13.4114 6.48898ZM13.4114 24.5108L13.4114 18.197L16.5176 21.3539L13.4114 24.5108Z" fill="#222222" fill-opacity="0.2"/>
<line x1="26.3968" y1="0.804216" x2="3.3968" y2="30.8042" stroke="#CCCCCC"/>
</svg>
