<svg width="14" height="25" viewBox="0 0 14 25" fill="none" xmlns="http://www.w3.org/2000/svg">
<path d="M8.60172 12.4999L13.6331 7.38635C13.8247 7.19175 13.9327 6.92474 13.9327 6.646C13.9327 6.36727 13.8247 6.10025 13.6331 5.90565L8.11168 0.294134C7.82577 0.00355754 7.40061 -0.0800061 7.0325 0.081144C6.66439 0.242754 6.42505 0.618388 6.42505 1.03448L6.42505 10.2879L1.75402 5.54071C1.36141 5.14174 0.732772 5.14967 0.349653 5.55864C-0.0333562 5.96761 -0.0256319 6.62255 0.366977 7.02152L5.75746 12.5001L0.366976 17.9786C-0.025633 18.3775 -0.0333573 19.0325 0.349651 19.4415C0.73266 19.8504 1.36152 19.8585 1.75402 19.4594L6.42505 14.7122L6.42504 23.9656C6.42504 24.3817 6.66438 24.7573 7.0325 24.919C7.15696 24.9737 7.28795 25.0001 7.41793 25.0001C7.67228 25.0001 7.92243 24.8983 8.11167 24.706L13.6331 19.0944C13.8247 18.8999 13.9327 18.6328 13.9327 18.3541C13.9327 18.0754 13.8247 17.8084 13.6331 17.6138L8.60172 12.4999ZM8.41137 3.48898L11.5176 6.64589L8.41137 9.8028L8.41137 3.48898ZM8.41137 21.5108L8.41137 15.197L11.5176 18.3539L8.41137 21.5108Z" fill="#222222"/>
</svg>
