<svg width="24" height="25" viewBox="0 0 24 25" fill="none" xmlns="http://www.w3.org/2000/svg">
<g clip-path="url(#clip0_643_790)">
<path d="M13.6017 12.5L18.6331 7.38638C18.8247 7.19178 18.9327 6.92477 18.9327 6.64603C18.9327 6.3673 18.8247 6.10028 18.6331 5.90568L13.1117 0.294164C12.8258 0.00358806 12.4006 -0.0799756 12.0325 0.0811746C11.6644 0.242784 11.425 0.618418 11.425 1.03451L11.425 10.2879L6.75402 5.54074C6.36141 5.14177 5.73277 5.1497 5.34965 5.55867C4.96664 5.96764 4.97437 6.62258 5.36698 7.02155L10.7575 12.5001L5.36698 17.9786C4.97437 18.3776 4.96664 19.0325 5.34965 19.4415C5.73266 19.8505 6.36152 19.8585 6.75402 19.4594L11.425 14.7123L11.425 23.9656C11.425 24.3817 11.6644 24.7574 12.0325 24.919C12.157 24.9737 12.2879 25.0001 12.4179 25.0001C12.6723 25.0001 12.9224 24.8983 13.1117 24.706L18.6331 19.0945C18.8247 18.8999 18.9327 18.6329 18.9327 18.3541C18.9327 18.0754 18.8247 17.8084 18.6331 17.6138L13.6017 12.5ZM13.4114 3.48901L16.5176 6.64592L13.4114 9.80283L13.4114 3.48901ZM13.4114 21.5108L13.4114 15.197L16.5176 18.3539L13.4114 21.5108Z" fill="#222222"/>
</g>
<defs>
<clipPath id="clip0_643_790">
<rect width="24" height="25" fill="white"/>
</clipPath>
</defs>
</svg>
