<svg width="36" height="36" viewBox="0 0 36 36" fill="none" xmlns="http://www.w3.org/2000/svg">
<circle cx="18" cy="18" r="13.5" stroke="#4285F4" stroke-width="2" stroke-linecap="round" stroke-linejoin="round"/>
<path d="M19.5001 4.57227C18.9781 5.0116 18.5078 5.53008 18.1076 6.12409C15.7934 9.55947 16.7023 14.2204 20.1377 16.5346C20.4089 16.7173 20.6877 16.8799 20.9724 17.0227C24.0001 18.5419 25.156 16.4944 26.7952 17.5986C27.8586 18.3149 28.1399 19.7576 27.4236 20.8209C26.673 21.9352 25.5001 22.5001 25.703 24.3253C25.8175 25.3555 26.4504 26.2432 27.2705 27.0001" stroke="#4285F4" stroke-width="2" stroke-linecap="round" stroke-linejoin="round"/>
<path d="M6 13.9199C7.62282 14.3148 9.1245 15.2516 10.209 16.6888C11.365 18.2207 11.8442 20.0524 11.6968 21.8255C11.6187 22.7645 12.2311 23.7123 13.0191 24.2288C13.3999 24.4784 13.7448 24.7967 14.0348 25.181C15.3188 26.8826 15.0626 29.2664 13.5 30.661" stroke="#4285F4" stroke-width="2" stroke-linecap="round" stroke-linejoin="round"/>
</svg>
