<svg width="34" height="34" viewBox="0 0 34 34" fill="none" xmlns="http://www.w3.org/2000/svg">
<circle cx="17" cy="17" r="12.75" stroke="#4285F4" stroke-width="2" stroke-linecap="round" stroke-linejoin="round"/>
<path d="M18.4168 4.31787C17.9238 4.7328 17.4796 5.22247 17.1017 5.78348C14.916 9.02801 15.7744 13.43 19.019 15.6156C19.2751 15.7882 19.5384 15.9417 19.8073 16.0766C22.6668 17.5114 23.7584 15.5776 25.3066 16.6205C26.3109 17.297 26.5766 18.6595 25.9001 19.6638C25.1912 20.7162 24.0834 21.2497 24.2751 22.9735C24.3832 23.9464 24.981 24.7848 25.7555 25.4997" stroke="#4285F4" stroke-width="2" stroke-linecap="round" stroke-linejoin="round"/>
<path d="M5.66675 13.147C7.19941 13.52 8.61767 14.4047 9.64193 15.762C10.7337 17.2088 11.1863 18.9388 11.047 20.6133C10.9733 21.5002 11.5517 22.3953 12.2959 22.8832C12.6555 23.1189 12.9813 23.4195 13.2552 23.7824C14.4679 25.3895 14.2259 27.6409 12.7501 28.9579" stroke="#4285F4" stroke-width="2" stroke-linecap="round" stroke-linejoin="round"/>
</svg>
