<svg width="20" height="19" viewBox="0 0 20 19" fill="none" xmlns="http://www.w3.org/2000/svg">
<path d="M16.3333 9.5V17.4167H3.66666V9.5" stroke="white" stroke-width="2" stroke-linecap="round" stroke-linejoin="round"/>
<path d="M17.9167 5.54166H2.08334V9.5H17.9167V5.54166Z" stroke="white" stroke-width="2" stroke-linecap="round" stroke-linejoin="round"/>
<path d="M10 17.4167V5.54166" stroke="white" stroke-width="2" stroke-linecap="round" stroke-linejoin="round"/>
<path d="M10 5.54167H6.43751C5.9126 5.54167 5.40919 5.33315 5.03803 4.96198C4.66686 4.59082 4.45834 4.08741 4.45834 3.5625C4.45834 3.03759 4.66686 2.53419 5.03803 2.16302C5.40919 1.79185 5.9126 1.58334 6.43751 1.58334C9.20834 1.58334 10 5.54167 10 5.54167Z" stroke="white" stroke-width="2" stroke-linecap="round" stroke-linejoin="round"/>
<path d="M10 5.54167H13.5625C14.0874 5.54167 14.5908 5.33315 14.962 4.96198C15.3331 4.59082 15.5417 4.08741 15.5417 3.5625C15.5417 3.03759 15.3331 2.53419 14.962 2.16302C14.5908 1.79185 14.0874 1.58334 13.5625 1.58334C10.7917 1.58334 10 5.54167 10 5.54167Z" stroke="white" stroke-width="2" stroke-linecap="round" stroke-linejoin="round"/>
</svg>
