<svg width="24" height="25" viewBox="0 0 24 25" fill="none" xmlns="http://www.w3.org/2000/svg">
<g clip-path="url(#clip0_5_1817)">
<path fill-rule="evenodd" clip-rule="evenodd" d="M23.52 12.6049C23.52 11.754 23.4436 10.9358 23.3018 10.1503H12V14.7921H18.4582C18.18 16.2921 17.3345 17.5631 16.0636 18.414V21.4249H19.9418C22.2109 19.3358 23.52 16.2594 23.52 12.6049Z" fill="#4285F4"/>
<path fill-rule="evenodd" clip-rule="evenodd" d="M12 24.3321C15.24 24.3321 17.9564 23.2576 19.9418 21.4248L16.0636 18.4139C14.9891 19.1339 13.6145 19.5594 12 19.5594C8.87455 19.5594 6.22909 17.4485 5.28546 14.6121H1.27637V17.7212C3.25091 21.643 7.30909 24.3321 12 24.3321Z" fill="#34A853"/>
<path fill-rule="evenodd" clip-rule="evenodd" d="M5.28545 14.6121C5.04545 13.8921 4.90909 13.1231 4.90909 12.3321C4.90909 11.5412 5.04545 10.7721 5.28545 10.0521V6.94305H1.27636C0.463636 8.56305 0 10.3958 0 12.3321C0 14.2685 0.463636 16.1012 1.27636 17.7212L5.28545 14.6121Z" fill="#FBBC05"/>
<path fill-rule="evenodd" clip-rule="evenodd" d="M12 5.10488C13.7618 5.10488 15.3436 5.71034 16.5873 6.89943L20.0291 3.45761C17.9509 1.52124 15.2345 0.332153 12 0.332153C7.30909 0.332153 3.25091 3.02124 1.27637 6.94306L5.28546 10.0522C6.22909 7.21579 8.87455 5.10488 12 5.10488Z" fill="#EA4335"/>
</g>
<defs>
<clipPath id="clip0_5_1817">
<rect y="0.332153" width="24" height="24" rx="6" fill="white"/>
</clipPath>
</defs>
</svg>
