<svg width="24" height="24" viewBox="0 0 24 25" fill="none" xmlns="http://www.w3.org/2000/svg">
<path d="M12 22.5C17.5228 22.5 22 18.0228 22 12.5C22 6.97715 17.5228 2.5 12 2.5C6.47715 2.5 2 6.97715 2 12.5C2 18.0228 6.47715 22.5 12 22.5Z" stroke="#3478F5" stroke-width="1.5" stroke-linecap="round" stroke-linejoin="round"/>
<path d="M9.09009 9.49999C9.32519 8.83166 9.78924 8.2681 10.4 7.90912C11.0108 7.55015 11.729 7.41893 12.4273 7.5387C13.1255 7.65848 13.7589 8.02151 14.2152 8.56352C14.6714 9.10552 14.9211 9.79151 14.9201 10.5C14.9201 12.5 11.9201 13.5 11.9201 13.5" stroke="#3478F5" stroke-width="1.5" stroke-linecap="round" stroke-linejoin="round"/>
<path d="M12 17.5H12.0102" stroke="#3478F5" stroke-width="1.5" stroke-linecap="round" stroke-linejoin="round"/>
</svg>
