<svg width="30" height="31" viewBox="0 0 30 31" fill="none" xmlns="http://www.w3.org/2000/svg">
<path d="M13.3438 14.0821C13.3438 13.7298 13.4482 13.3854 13.6439 13.0925C13.8397 12.7996 14.1179 12.5713 14.4433 12.4365C14.7688 12.3016 15.127 12.2664 15.4725 12.3351C15.818 12.4038 16.1354 12.5735 16.3845 12.8226C16.6336 13.0717 16.8033 13.3891 16.872 13.7346C16.9408 14.0801 16.9055 14.4383 16.7707 14.7638C16.6358 15.0893 16.4075 15.3675 16.1146 15.5632C15.8217 15.7589 15.4773 15.8634 15.125 15.8634V16.4571M20.4688 15.2696C20.4688 18.2209 18.0763 20.6134 15.125 20.6134C12.1737 20.6134 9.78125 18.2209 9.78125 15.2696C9.78125 12.3184 12.1737 9.92587 15.125 9.92587C18.0763 9.92587 20.4688 12.3184 20.4688 15.2696Z" stroke="#1E1E1E" stroke-width="0.765625" stroke-linecap="round" stroke-linejoin="round"/>
<circle cx="15.125" cy="18.2384" r="0.59375" fill="#1E1E1E"/>
</svg>
