<svg width="25" height="24" viewBox="0 0 25 24" fill="none" xmlns="http://www.w3.org/2000/svg">
<path d="M10.5 10H14.5V14H10.5V10Z" stroke="#222222" stroke-width="1.5" stroke-linecap="round" stroke-linejoin="round"/>
<path d="M10.5 10L7 6.5" stroke="#222222" stroke-width="1.5" stroke-linecap="round" stroke-linejoin="round"/>
<path d="M10.4599 6C10.3679 5.35657 10.0986 4.75145 9.68213 4.25246C9.26564 3.75346 8.71843 3.3803 8.1018 3.17478C7.48518 2.96926 6.82351 2.93951 6.19092 3.08885C5.55834 3.23819 4.97984 3.56074 4.52024 4.02034C4.06064 4.47993 3.7381 5.05843 3.58876 5.69102C3.43942 6.3236 3.46917 6.98527 3.67469 7.60189C3.88021 8.21852 4.25337 8.76573 4.75236 9.18223C5.25136 9.59872 5.85647 9.86803 6.49991 9.96" stroke="#222222" stroke-width="1.5" stroke-linecap="round" stroke-linejoin="round"/>
<path d="M14.5 10L18 6.5" stroke="#222222" stroke-width="1.5" stroke-linecap="round" stroke-linejoin="round"/>
<path d="M18.5 9.96C19.1435 9.86803 19.7486 9.59872 20.2476 9.18223C20.7466 8.76573 21.1197 8.21852 21.3253 7.60189C21.5308 6.98527 21.5605 6.3236 21.4112 5.69102C21.2618 5.05843 20.9393 4.47993 20.4797 4.02034C20.0201 3.56074 19.4416 3.23819 18.809 3.08885C18.1764 2.93951 17.5148 2.96926 16.8981 3.17478C16.2815 3.3803 15.7343 3.75346 15.3178 4.25246C14.9013 4.75145 14.632 5.35657 14.54 6" stroke="#222222" stroke-width="1.5" stroke-linecap="round" stroke-linejoin="round"/>
<path d="M14.5 14L18 17.5" stroke="#222222" stroke-width="1.5" stroke-linecap="round" stroke-linejoin="round"/>
<path d="M14.54 18C14.632 18.6434 14.9013 19.2486 15.3178 19.7476C15.7343 20.2465 16.2815 20.6197 16.8981 20.8252C17.5148 21.0307 18.1764 21.0605 18.809 20.9112C19.4416 20.7618 20.0201 20.4393 20.4797 19.9797C20.9393 19.5201 21.2618 18.9416 21.4112 18.309C21.5605 17.6764 21.5308 17.0147 21.3253 16.3981C21.1197 15.7815 20.7466 15.2343 20.2476 14.8178C19.7486 14.4013 19.1435 14.132 18.5 14.04" stroke="#222222" stroke-width="1.5" stroke-linecap="round" stroke-linejoin="round"/>
<path d="M10.5 14L7 17.5" stroke="#222222" stroke-width="1.5" stroke-linecap="round" stroke-linejoin="round"/>
<path d="M6.49991 14.04C5.85647 14.132 5.25136 14.4013 4.75236 14.8178C4.25337 15.2343 3.88021 15.7815 3.67469 16.3981C3.46917 17.0147 3.43942 17.6764 3.58876 18.309C3.7381 18.9416 4.06064 19.5201 4.52024 19.9797C4.97984 20.4393 5.55834 20.7618 6.19092 20.9112C6.82351 21.0605 7.48518 21.0307 8.1018 20.8252C8.71843 20.6197 9.26564 20.2465 9.68213 19.7476C10.0986 19.2486 10.3679 18.6434 10.4599 18" stroke="#222222" stroke-width="1.5" stroke-linecap="round" stroke-linejoin="round"/>
</svg>
