<svg width="13" height="13" viewBox="0 0 13 13" fill="none" xmlns="http://www.w3.org/2000/svg">
<path d="M5.57129 5.44266H7.68557V7.55694H5.57129V5.44266Z" stroke="#222222" stroke-width="1.05714" stroke-linecap="round" stroke-linejoin="round"/>
<path d="M5.57144 5.44296L3.72144 3.59296" stroke="#222222" stroke-width="1.05714" stroke-linecap="round" stroke-linejoin="round"/>
<path d="M5.55029 3.32912C5.50168 2.98902 5.35932 2.66917 5.13918 2.40542C4.91903 2.14167 4.62979 1.94442 4.30386 1.83579C3.97793 1.72716 3.62819 1.71143 3.29382 1.79037C2.95946 1.86931 2.65368 2.0398 2.41075 2.28273C2.16782 2.52566 1.99733 2.83144 1.91839 3.1658C1.83945 3.50017 1.85518 3.84991 1.96381 4.17584C2.07244 4.50177 2.26969 4.79101 2.53344 5.01116C2.7972 5.2313 3.11704 5.37365 3.45714 5.42226" stroke="#222222" stroke-width="1.05714" stroke-linecap="round" stroke-linejoin="round"/>
<path d="M7.68555 5.44296L9.53555 3.59296" stroke="#222222" stroke-width="1.05714" stroke-linecap="round" stroke-linejoin="round"/>
<path d="M9.79993 5.42226C10.14 5.37365 10.4599 5.2313 10.7236 5.01116C10.9874 4.79101 11.1846 4.50177 11.2933 4.17584C11.4019 3.84991 11.4176 3.50017 11.3387 3.1658C11.2597 2.83144 11.0893 2.52566 10.8463 2.28273C10.6034 2.0398 10.2976 1.86931 9.96325 1.79037C9.62888 1.71143 9.27914 1.72716 8.95321 1.83579C8.62728 1.94442 8.33804 2.14167 8.1179 2.40542C7.89775 2.66917 7.7554 2.98902 7.70679 3.32912" stroke="#222222" stroke-width="1.05714" stroke-linecap="round" stroke-linejoin="round"/>
<path d="M7.68555 7.55826L9.53555 9.40826" stroke="#222222" stroke-width="1.05714" stroke-linecap="round" stroke-linejoin="round"/>
<path d="M7.70679 9.67041C7.7554 10.0105 7.89775 10.3304 8.1179 10.5941C8.33804 10.8579 8.62728 11.0551 8.95321 11.1637C9.27914 11.2724 9.62888 11.2881 9.96325 11.2092C10.2976 11.1302 10.6034 10.9597 10.8463 10.7168C11.0893 10.4739 11.2597 10.1681 11.3387 9.83373C11.4176 9.49937 11.4019 9.14963 11.2933 8.8237C11.1846 8.49777 10.9874 8.20853 10.7236 7.98838C10.4599 7.76823 10.14 7.62588 9.79993 7.57727" stroke="#222222" stroke-width="1.05714" stroke-linecap="round" stroke-linejoin="round"/>
<path d="M5.57144 7.55826L3.72144 9.40826" stroke="#222222" stroke-width="1.05714" stroke-linecap="round" stroke-linejoin="round"/>
<path d="M3.45714 7.57727C3.11704 7.62588 2.7972 7.76823 2.53344 7.98838C2.26969 8.20853 2.07244 8.49777 1.96381 8.8237C1.85518 9.14963 1.83945 9.49937 1.91839 9.83373C1.99733 10.1681 2.16782 10.4739 2.41075 10.7168C2.65368 10.9597 2.95946 11.1302 3.29382 11.2092C3.62819 11.2881 3.97793 11.2724 4.30386 11.1637C4.62979 11.0551 4.91903 10.8579 5.13918 10.5941C5.35932 10.3304 5.50168 10.0105 5.55029 9.67041" stroke="#222222" stroke-width="1.05714" stroke-linecap="round" stroke-linejoin="round"/>
</svg>
