<svg width="40" height="40" viewBox="0 0 40 40" fill="none" xmlns="http://www.w3.org/2000/svg">
<path d="M18 18H22V22H18V18Z" stroke="#0653EA" stroke-width="2" stroke-linecap="round" stroke-linejoin="round"/>
<path d="M18 18L14.5 14.5" stroke="#0653EA" stroke-width="2" stroke-linecap="round" stroke-linejoin="round"/>
<path d="M17.96 14C17.8681 13.3566 17.5987 12.7515 17.1823 12.2525C16.7658 11.7535 16.2185 11.3803 15.6019 11.1748C14.9853 10.9693 14.3236 10.9395 13.691 11.0889C13.0585 11.2382 12.48 11.5608 12.0204 12.0204C11.5608 12.48 11.2382 13.0585 11.0889 13.691C10.9395 14.3236 10.9693 14.9853 11.1748 15.6019C11.3803 16.2185 11.7535 16.7658 12.2525 17.1823C12.7515 17.5987 13.3566 17.8681 14 17.96" stroke="#0653EA" stroke-width="2" stroke-linecap="round" stroke-linejoin="round"/>
<path d="M22 18L25.5 14.5" stroke="#0653EA" stroke-width="2" stroke-linecap="round" stroke-linejoin="round"/>
<path d="M26 17.96C26.6435 17.8681 27.2486 17.5987 27.7476 17.1823C28.2466 16.7658 28.6197 16.2185 28.8252 15.6019C29.0308 14.9853 29.0605 14.3236 28.9112 13.691C28.7618 13.0585 28.4393 12.48 27.9797 12.0204C27.5201 11.5608 26.9416 11.2382 26.309 11.0889C25.6764 10.9395 25.0148 10.9693 24.3981 11.1748C23.7815 11.3803 23.2343 11.7535 22.8178 12.2525C22.4013 12.7515 22.132 13.3566 22.04 14" stroke="#0653EA" stroke-width="2" stroke-linecap="round" stroke-linejoin="round"/>
<path d="M22 22L25.5 25.5" stroke="#0653EA" stroke-width="2" stroke-linecap="round" stroke-linejoin="round"/>
<path d="M22.04 26C22.132 26.6434 22.4013 27.2485 22.8178 27.7475C23.2343 28.2465 23.7815 28.6197 24.3981 28.8252C25.0148 29.0307 25.6764 29.0605 26.309 28.9111C26.9416 28.7618 27.5201 28.4392 27.9797 27.9796C28.4393 27.52 28.7618 26.9415 28.9112 26.309C29.0605 25.6764 29.0308 25.0147 28.8252 24.3981C28.6197 23.7815 28.2466 23.2342 27.7476 22.8178C27.2486 22.4013 26.6435 22.1319 26 22.04" stroke="#0653EA" stroke-width="2" stroke-linecap="round" stroke-linejoin="round"/>
<path d="M18 22L14.5 25.5" stroke="#0653EA" stroke-width="2" stroke-linecap="round" stroke-linejoin="round"/>
<path d="M14 22.04C13.3566 22.1319 12.7515 22.4013 12.2525 22.8178C11.7535 23.2342 11.3803 23.7815 11.1748 24.3981C10.9693 25.0147 10.9395 25.6764 11.0889 26.309C11.2382 26.9415 11.5608 27.52 12.0204 27.9796C12.48 28.4392 13.0585 28.7618 13.691 28.9111C14.3236 29.0605 14.9853 29.0307 15.6019 28.8252C16.2185 28.6197 16.7658 28.2465 17.1823 27.7475C17.5987 27.2485 17.8681 26.6434 17.96 26" stroke="#0653EA" stroke-width="2" stroke-linecap="round" stroke-linejoin="round"/>
</svg>
