<svg width="30" height="31" viewBox="0 0 30 31" fill="none" xmlns="http://www.w3.org/2000/svg">
<circle cx="15" cy="15.6446" r="15" fill="#3A4DE9" fill-opacity="0.1"/>
<path d="M13.8438 13.966H16.4509V16.5732H13.8438V13.966Z" stroke="#4285F4" stroke-width="0.977679" stroke-linecap="round" stroke-linejoin="round"/>
<path d="M13.8438 13.966L11.5625 11.6848" stroke="#4285F4" stroke-width="0.977679" stroke-linecap="round" stroke-linejoin="round"/>
<path d="M13.8179 11.3589C13.7579 10.9396 13.5824 10.5451 13.3109 10.2199C13.0395 9.89467 12.6828 9.65145 12.2809 9.51749C11.879 9.38354 11.4477 9.36415 11.0354 9.46149C10.6231 9.55883 10.246 9.76905 9.94648 10.0686C9.64692 10.3682 9.4367 10.7452 9.33936 11.1575C9.24202 11.5698 9.26141 12.0011 9.39536 12.403C9.52932 12.8049 9.77254 13.1616 10.0978 13.4331C10.423 13.7045 10.8174 13.8801 11.2368 13.94" stroke="#4285F4" stroke-width="0.977679" stroke-linecap="round" stroke-linejoin="round"/>
<path d="M16.4509 13.966L18.7322 11.6848" stroke="#4285F4" stroke-width="0.977679" stroke-linecap="round" stroke-linejoin="round"/>
<path d="M19.0581 13.94C19.4775 13.8801 19.8719 13.7045 20.1971 13.4331C20.5224 13.1616 20.7656 12.8049 20.8996 12.403C21.0335 12.0011 21.0529 11.5698 20.9556 11.1575C20.8582 10.7452 20.648 10.3682 20.3484 10.0686C20.0489 9.76905 19.6718 9.55883 19.2595 9.46149C18.8472 9.36415 18.4159 9.38354 18.014 9.51749C17.6121 9.65145 17.2555 9.89467 16.984 10.2199C16.7125 10.5451 16.537 10.9396 16.4771 11.3589" stroke="#4285F4" stroke-width="0.977679" stroke-linecap="round" stroke-linejoin="round"/>
<path d="M16.4509 16.5732L18.7322 18.8544" stroke="#4285F4" stroke-width="0.977679" stroke-linecap="round" stroke-linejoin="round"/>
<path d="M16.4771 19.1804C16.537 19.5998 16.7125 19.9942 16.984 20.3194C17.2555 20.6446 17.6121 20.8879 18.014 21.0218C18.4159 21.1558 18.8472 21.1752 19.2595 21.0778C19.6718 20.9805 20.0489 20.7703 20.3484 20.4707C20.648 20.1711 20.8582 19.7941 20.9556 19.3818C21.0529 18.9695 21.0335 18.5382 20.8996 18.1363C20.7656 17.7344 20.5224 17.3777 20.1971 17.1062C19.8719 16.8348 19.4775 16.6592 19.0581 16.5993" stroke="#4285F4" stroke-width="0.977679" stroke-linecap="round" stroke-linejoin="round"/>
<path d="M13.8438 16.5732L11.5625 18.8544" stroke="#4285F4" stroke-width="0.977679" stroke-linecap="round" stroke-linejoin="round"/>
<path d="M11.2368 16.5993C10.8174 16.6592 10.423 16.8348 10.0978 17.1062C9.77254 17.3777 9.52932 17.7344 9.39536 18.1363C9.26141 18.5382 9.24202 18.9695 9.33936 19.3818C9.4367 19.7941 9.64692 20.1711 9.94648 20.4707C10.246 20.7703 10.6231 20.9805 11.0354 21.0778C11.4477 21.1752 11.879 21.1558 12.2809 21.0218C12.6828 20.8879 13.0395 20.6446 13.3109 20.3194C13.5824 19.9942 13.7579 19.5998 13.8179 19.1804" stroke="#4285F4" stroke-width="0.977679" stroke-linecap="round" stroke-linejoin="round"/>
</svg>
