<svg width="40" height="39" viewBox="0 0 40 39" fill="none" xmlns="http://www.w3.org/2000/svg">
<path d="M18 17.3179H22V21.3179H18V17.3179Z" stroke="#0653EA" stroke-width="2" stroke-linecap="round" stroke-linejoin="round"/>
<path d="M18 17.3179L14.5 13.8179" stroke="#0653EA" stroke-width="2" stroke-linecap="round" stroke-linejoin="round"/>
<path d="M17.9599 13.3179C17.8679 12.6745 17.5986 12.0694 17.1821 11.5704C16.7656 11.0714 16.2184 10.6982 15.6018 10.4927C14.9852 10.2872 14.3235 10.2574 13.6909 10.4068C13.0583 10.5561 12.4798 10.8786 12.0202 11.3382C11.5606 11.7978 11.2381 12.3763 11.0888 13.0089C10.9394 13.6415 10.9692 14.3032 11.1747 14.9198C11.3802 15.5364 11.7534 16.0836 12.2524 16.5001C12.7514 16.9166 13.3565 17.1859 13.9999 17.2779" stroke="#0653EA" stroke-width="2" stroke-linecap="round" stroke-linejoin="round"/>
<path d="M22 17.3179L25.5 13.8179" stroke="#0653EA" stroke-width="2" stroke-linecap="round" stroke-linejoin="round"/>
<path d="M26 17.2779C26.6435 17.1859 27.2486 16.9166 27.7476 16.5001C28.2466 16.0836 28.6197 15.5364 28.8253 14.9198C29.0308 14.3032 29.0605 13.6415 28.9112 13.0089C28.7618 12.3763 28.4393 11.7978 27.9797 11.3382C27.5201 10.8786 26.9416 10.5561 26.309 10.4068C25.6764 10.2574 25.0148 10.2872 24.3981 10.4927C23.7815 10.6982 23.2343 11.0714 22.8178 11.5704C22.4013 12.0694 22.132 12.6745 22.04 13.3179" stroke="#0653EA" stroke-width="2" stroke-linecap="round" stroke-linejoin="round"/>
<path d="M22 21.3179L25.5 24.8179" stroke="#0653EA" stroke-width="2" stroke-linecap="round" stroke-linejoin="round"/>
<path d="M22.04 25.3179C22.132 25.9613 22.4013 26.5665 22.8178 27.0654C23.2343 27.5644 23.7815 27.9376 24.3981 28.1431C25.0148 28.3486 25.6764 28.3784 26.309 28.2291C26.9416 28.0797 27.5201 27.7572 27.9797 27.2976C28.4393 26.838 28.7618 26.2595 28.9112 25.6269C29.0605 24.9943 29.0308 24.3326 28.8253 23.716C28.6197 23.0994 28.2466 22.5522 27.7476 22.1357C27.2486 21.7192 26.6435 21.4499 26 21.3579" stroke="#0653EA" stroke-width="2" stroke-linecap="round" stroke-linejoin="round"/>
<path d="M18 21.3179L14.5 24.8179" stroke="#0653EA" stroke-width="2" stroke-linecap="round" stroke-linejoin="round"/>
<path d="M13.9999 21.3579C13.3565 21.4499 12.7514 21.7192 12.2524 22.1357C11.7534 22.5522 11.3802 23.0994 11.1747 23.716C10.9692 24.3326 10.9394 24.9943 11.0888 25.6269C11.2381 26.2595 11.5606 26.838 12.0202 27.2976C12.4798 27.7572 13.0583 28.0797 13.6909 28.2291C14.3235 28.3784 14.9852 28.3486 15.6018 28.1431C16.2184 27.9376 16.7656 27.5644 17.1821 27.0654C17.5986 26.5665 17.8679 25.9613 17.9599 25.3179" stroke="#0653EA" stroke-width="2" stroke-linecap="round" stroke-linejoin="round"/>
</svg>
