<svg width="24" height="24" viewBox="0 0 24 24" fill="none" xmlns="http://www.w3.org/2000/svg">
<path fill-rule="evenodd" clip-rule="evenodd" d="M5.81689 16.2453C6.11367 16.6776 6.45637 17.0796 6.84061 17.4438C7.89267 18.441 9.21114 19.1119 10.6365 19.3754C12.0619 19.6389 13.5331 19.4837 14.8721 18.9286C16.2111 18.3735 17.3606 17.4423 18.1815 16.2476C19.0023 15.0529 19.4594 13.6459 19.4974 12.1969C19.5354 10.7479 19.1526 9.31888 18.3955 8.08282C17.6384 6.84675 16.5392 5.85658 15.2311 5.23209C14.396 4.83339 13.4985 4.59466 12.5846 4.52319L12.8619 5.55777C13.5307 5.64725 14.185 5.8408 14.8003 6.13453C15.934 6.67575 16.8866 7.5339 17.5428 8.60516C18.199 9.67641 18.5307 10.9149 18.4977 12.1707C18.4648 13.4265 18.0687 14.6459 17.3573 15.6813C16.6459 16.7167 15.6496 17.5238 14.4892 18.0049C13.3287 18.486 12.0536 18.6204 10.8183 18.3921C9.58298 18.1637 8.44031 17.5822 7.52853 16.718C7.28271 16.485 7.05652 16.2342 6.85146 15.9681L5.81689 16.2453Z" fill="#222222"/>
<path d="M9.67063 3.30667C9.54649 2.84338 9.48442 2.61174 9.28694 2.51053C9.08946 2.40932 8.87978 2.48868 8.46042 2.64739C7.54796 2.99272 6.68924 3.47037 5.91239 4.06647C4.87054 4.8659 3.99636 5.86272 3.33975 7C2.68314 8.13728 2.25696 9.39275 2.08555 10.6947C1.95774 11.6656 1.97344 12.6481 2.13061 13.6109C2.20284 14.0535 2.23896 14.2747 2.42535 14.3952C2.61174 14.5156 2.84338 14.4535 3.30667 14.3294L11.0341 12.2588C11.4894 12.1368 11.7171 12.0758 11.8206 11.8964C11.9242 11.7171 11.8632 11.4894 11.7412 11.0341L9.67063 3.30667Z" fill="#222222"/>
</svg>
