<svg width="30" height="31" viewBox="0 0 30 31" fill="none" xmlns="http://www.w3.org/2000/svg">
<circle cx="15" cy="15.6446" r="15" fill="#3A4DE9" fill-opacity="0.1"/>
<path fill-rule="evenodd" clip-rule="evenodd" d="M10.939 18.1443C11.1398 18.4367 11.3716 18.7087 11.6316 18.9551L11.907 19.1983C12.5682 19.74 13.3574 20.1076 14.2019 20.2637L14.5652 20.3174C15.4147 20.4117 16.2768 20.2898 17.07 19.961C17.9766 19.5851 18.7545 18.9544 19.3103 18.1455C19.866 17.3367 20.1761 16.3843 20.2019 15.4034C20.2244 14.545 20.0281 13.6967 19.6355 12.9375L19.4558 12.6172C19.0073 11.885 18.3811 11.2805 17.6384 10.8575L17.3132 10.6875C16.7478 10.4176 16.14 10.2557 15.5212 10.207L15.7089 10.9077C16.1617 10.9682 16.6048 11.0991 17.0212 11.2979L17.3034 11.4453C17.947 11.8119 18.489 12.3363 18.8777 12.9707L19.0339 13.2481C19.3742 13.9061 19.5436 14.6409 19.5241 15.3848C19.5019 16.2349 19.2342 17.0608 18.7527 17.7618C18.271 18.4628 17.596 19.0093 16.8103 19.335C16.1227 19.62 15.3758 19.7263 14.6394 19.6446L14.3249 19.5977C13.5933 19.4624 12.9096 19.1441 12.3366 18.6748L12.0974 18.4639C11.9311 18.3063 11.7781 18.1366 11.6393 17.9566L10.939 18.1443Z" fill="#4285F4"/>
<path d="M13.5479 9.38353C13.4639 9.06985 13.4218 8.91301 13.2881 8.84448C13.1544 8.77595 13.0124 8.82968 12.7285 8.93714C12.1107 9.17096 11.5293 9.49437 11.0033 9.89798C10.2978 10.4393 9.70595 11.1142 9.26137 11.8842C8.81679 12.6543 8.52823 13.5043 8.41217 14.3859C8.32563 15.0432 8.33627 15.7084 8.44268 16.3604C8.49159 16.66 8.51604 16.8098 8.64224 16.8914C8.76845 16.9729 8.92529 16.9309 9.23897 16.8468L14.4711 15.4449C14.7794 15.3623 14.9335 15.321 15.0036 15.1995C15.0738 15.0781 15.0324 14.9239 14.9498 14.6156L13.5479 9.38353Z" fill="#4285F4"/>
</svg>
