<svg width="30" height="31" viewBox="0 0 30 31" fill="none" xmlns="http://www.w3.org/2000/svg">
<circle cx="15" cy="15.6446" r="15" fill="#3A4DE9" fill-opacity="0.1"/>
<path d="M15.5217 10.2082C16.1404 10.2569 16.7485 10.4178 17.3137 10.6877L17.6389 10.8576C18.3814 11.2806 19.0079 11.8853 19.4563 12.6174L19.636 12.9377C20.0285 13.6968 20.2249 14.5452 20.2024 15.4035C20.1766 16.3844 19.8665 17.3369 19.3108 18.1457C18.7551 18.9544 17.977 19.5853 17.0706 19.9611C16.2774 20.2899 15.4151 20.4117 14.5657 20.3176L14.2024 20.2639C13.358 20.1078 12.5687 19.74 11.9075 19.1984L11.6321 18.9553C11.3721 18.7088 11.1405 18.4362 10.9397 18.1437L11.6409 17.9562C11.7795 18.136 11.9318 18.3066 12.0979 18.4641L12.3372 18.675C12.9101 19.1441 13.5939 19.4626 14.3254 19.5978L14.6399 19.6447C15.3762 19.7264 16.1233 19.6201 16.8108 19.3351C17.5964 19.0094 18.2715 18.4629 18.7532 17.7619C19.2346 17.061 19.5023 16.235 19.5247 15.3849C19.5441 14.6411 19.3747 13.9061 19.0344 13.2482L18.8782 12.9709C18.4895 12.3366 17.9473 11.812 17.304 11.4455L17.0217 11.298C16.6054 11.0993 16.1619 10.9699 15.7092 10.9094L15.5217 10.2082Z" fill="#4285F4"/>
<path d="M13.5479 9.38353C13.4639 9.06985 13.4218 8.91301 13.2881 8.84448C13.1544 8.77595 13.0124 8.82968 12.7285 8.93715C12.1107 9.17096 11.5293 9.49437 11.0033 9.89798C10.2978 10.4393 9.70595 11.1142 9.26137 11.8842C8.81679 12.6543 8.52823 13.5043 8.41217 14.3859C8.32563 15.0432 8.33627 15.7084 8.44268 16.3604C8.49159 16.66 8.51604 16.8098 8.64224 16.8914C8.76845 16.9729 8.92529 16.9309 9.23897 16.8468L14.4711 15.4449C14.7794 15.3623 14.9335 15.321 15.0036 15.1995C15.0738 15.0781 15.0324 14.9239 14.9498 14.6156L13.5479 9.38353Z" fill="#4285F4"/>
</svg>
