<svg width="30" height="30" viewBox="0 0 30 30" fill="none" xmlns="http://www.w3.org/2000/svg">
<circle cx="15" cy="15" r="15" fill="#FFEAEA"/>
<path d="M14.9998 12.006H14.9998C14.6263 12.006 14.2612 12.113 13.9504 12.3137C13.6396 12.5144 13.3972 12.7998 13.2539 13.134C13.1106 13.4683 13.0731 13.8362 13.1462 14.1912C13.2192 14.5461 13.3995 14.8719 13.664 15.1275C13.9284 15.383 14.2651 15.5569 14.6314 15.6273C14.9977 15.6977 15.3774 15.6616 15.7225 15.5234C16.0676 15.3852 16.3629 15.1512 16.5708 14.8505C16.7787 14.5498 16.8898 14.1961 16.8898 13.8342V13.8341C16.8892 13.3489 16.6895 12.8841 16.335 12.5415C15.9806 12.199 15.5004 12.0066 14.9998 12.006ZM14.9997 14.6733C14.8273 14.6733 14.6589 14.6238 14.5158 14.5314C14.3727 14.439 14.2614 14.3079 14.1958 14.1547C14.1301 14.0016 14.113 13.8332 14.1464 13.6708C14.1799 13.5084 14.2624 13.3589 14.384 13.2415C14.5056 13.124 14.6606 13.0438 14.8297 13.0113C14.9988 12.9788 15.1741 12.9955 15.3333 13.0592C15.4924 13.1229 15.6282 13.2307 15.7236 13.3687C15.819 13.5066 15.8698 13.6686 15.8698 13.8341C15.8695 14.056 15.7782 14.2691 15.6153 14.4266C15.4523 14.5841 15.2309 14.673 14.9997 14.6733Z" fill="#C91C1C" stroke="#C91C1C" stroke-width="0.1"/>
<path d="M10.7688 16.4972L10.7688 16.4972L14.2448 21.6542C14.3269 21.776 14.439 21.8758 14.5708 21.9448C14.7026 22.0139 14.8501 22.05 14.9998 22.05C15.1495 22.05 15.297 22.0139 15.4288 21.9448C15.5606 21.8758 15.6727 21.776 15.7547 21.6542L19.2309 16.4972C19.8634 15.5589 20.143 14.4388 20.0227 13.3247C19.9023 12.2106 19.3894 11.1706 18.5702 10.3789L18.5355 10.4149L18.5702 10.3789C17.6872 9.52576 16.5087 9.0192 15.2623 8.95658C14.016 8.89397 12.7896 9.2797 11.8199 10.0397C10.8501 10.7997 10.2057 11.8803 10.0114 13.073C9.81722 14.2658 10.0871 15.4857 10.7688 16.4972ZM18.3772 15.956L14.9998 20.9664L11.6224 15.956C10.5896 14.4238 10.8109 12.373 12.1494 11.0795C12.5236 10.7179 12.9678 10.431 13.4569 10.2352C13.946 10.0394 14.4703 9.93861 14.9998 9.93861C15.5293 9.93861 16.0536 10.0394 16.5427 10.2352C17.0318 10.431 17.476 10.7179 17.8502 11.0795C19.1887 12.373 19.4099 14.4238 18.3772 15.956Z" fill="#C91C1C" stroke="#C91C1C" stroke-width="0.1"/>
</svg>
