<svg width="25" height="24" viewBox="0 0 25 24" fill="none" xmlns="http://www.w3.org/2000/svg">
<path d="M19.0711 19.0711C17.6725 20.4696 15.8907 21.422 13.9509 21.8079C12.0111 22.1937 10.0004 21.9957 8.17317 21.2388C6.3459 20.4819 4.78412 19.2002 3.6853 17.5557C2.58649 15.9112 2 13.9778 2 12C2 10.0222 2.58649 8.08879 3.6853 6.4443C4.78412 4.79981 6.3459 3.51808 8.17316 2.76121C10.0004 2.00433 12.0111 1.8063 13.9509 2.19215C15.8907 2.578 17.6725 3.53041 19.0711 4.92893" stroke="#222222" stroke-width="2"/>
<path d="M23 12L23.7809 11.3753L24.2806 12L23.7809 12.6247L23 12ZM11 13C10.4477 13 10 12.5523 10 12C10 11.4477 10.4477 11 11 11V13ZM19.7809 6.3753L23.7809 11.3753L22.2191 12.6247L18.2191 7.6247L19.7809 6.3753ZM23.7809 12.6247L19.7809 17.6247L18.2191 16.3753L22.2191 11.3753L23.7809 12.6247ZM23 13H11V11H23V13Z" fill="#222222"/>
</svg>
