<svg width="30" height="31" viewBox="0 0 30 31" fill="none" xmlns="http://www.w3.org/2000/svg">
<circle cx="15" cy="15.6446" r="15" fill="#3A4DE9" fill-opacity="0.1"/>
<rect x="8.625" y="13.7696" width="12.5" height="2.5" rx="1.25" fill="#4285F4"/>
<path d="M15.5 12.2071V14.3946H13.3125C12.1044 14.3946 11.125 13.4153 11.125 12.2071C11.125 10.999 12.1044 10.0196 13.3125 10.0196C14.5206 10.0196 15.5 10.999 15.5 12.2071Z" stroke="#4285F4" stroke-width="1.25" stroke-linecap="round"/>
<path d="M15.5 12.8321V14.3946H17.0625C17.9254 14.3946 18.625 13.6951 18.625 12.8321C18.625 11.9692 17.9254 11.2696 17.0625 11.2696C16.1996 11.2696 15.5 11.9692 15.5 12.8321Z" stroke="#4285F4" stroke-width="1.25" stroke-linecap="round"/>
<path d="M15.5 16.8946V21.2696H16.125V16.8946H19.25V20.8946C19.25 21.2447 19.2498 21.4201 19.1816 21.5538C19.1218 21.6711 19.0264 21.7664 18.9092 21.8263C18.7755 21.8944 18.6 21.8946 18.25 21.8946H11.5C11.15 21.8946 10.9745 21.8944 10.8408 21.8263C10.7236 21.7664 10.6282 21.6711 10.5684 21.5538C10.5002 21.4201 10.5 21.2447 10.5 20.8946V16.8946H15.5ZM18.25 15.6446C18.6 15.6446 18.7755 15.6449 18.9092 15.713C19.0264 15.7729 19.1218 15.8682 19.1816 15.9855C19.2194 16.0597 19.2347 16.1471 19.2422 16.2696H10.5078C10.5153 16.1471 10.5306 16.0597 10.5684 15.9855C10.6282 15.8682 10.7236 15.7729 10.8408 15.713C10.9745 15.6449 11.15 15.6446 11.5 15.6446H18.25Z" fill="#4285F4"/>
</svg>
