<svg width="21" height="21" viewBox="0 0 21 21" fill="none" xmlns="http://www.w3.org/2000/svg">
<g clip-path="url(#clip0_2252_1305)">
<path d="M0.666748 3.16832C0.666748 2.52481 0.89198 1.99392 1.34242 1.57566C1.79287 1.15737 2.37847 0.948242 3.09918 0.948242C3.80704 0.948242 4.37974 1.15415 4.81733 1.566C5.26777 1.99071 5.493 2.54411 5.493 3.22623C5.493 3.844 5.27422 4.35878 4.83663 4.77064C4.38619 5.19535 3.79416 5.4077 3.06057 5.4077H3.04127C2.33341 5.4077 1.76071 5.19535 1.32312 4.77064C0.885532 4.34593 0.666748 3.81181 0.666748 3.16832ZM0.917713 20.0602V7.16446H5.20343V20.0602H0.917713ZM7.57795 20.0602H11.8637V12.8594C11.8637 12.409 11.9151 12.0615 12.0181 11.817C12.1983 11.3794 12.4718 11.0094 12.8386 10.7069C13.2054 10.4045 13.6655 10.2533 14.2189 10.2533C15.6603 10.2533 16.381 11.2249 16.381 13.1683V20.0602H20.6667V12.6664C20.6667 10.7616 20.2163 9.31697 19.3154 8.33241C18.4145 7.34786 17.224 6.85558 15.744 6.85558C14.0837 6.85558 12.7903 7.56986 11.8637 8.99844V9.03705H11.8444L11.8637 8.99844V7.16446H7.57795C7.60368 7.57629 7.61656 8.85685 7.61656 11.0062C7.61656 13.1554 7.60368 16.1735 7.57795 20.0602Z" fill="#0000FF"/>
</g>
<defs>
<clipPath id="clip0_2252_1305">
<rect width="20" height="20" fill="white" transform="translate(0.666748 0.5)"/>
</clipPath>
</defs>
</svg>
