<svg width="20" height="25" viewBox="0 0 20 25" fill="none" xmlns="http://www.w3.org/2000/svg">
<path d="M17.3683 3.3463L19.1353 3.36434L1.78483 21.9104L0.0166791 21.9242L17.3683 3.3463Z" fill="#0000FF"/>
<mask id="path-2-inside-1_2252_1309" fill="white">
<path d="M0.176241 3.28207L6.113 3.31181L19.828 21.7145L13.9072 21.7145L0.176241 3.28207Z"/>
</mask>
<path d="M0.176241 3.28207L6.113 3.31181L19.828 21.7145L13.9072 21.7145L0.176241 3.28207Z" fill="white"/>
<path d="M0.176241 3.28207L0.241373 -9.71777L-25.8155 -9.84832L-10.2491 11.0482L0.176241 3.28207ZM6.113 3.31181L16.5366 -4.4566L12.662 -9.65554L6.17813 -9.68802L6.113 3.31181ZM19.828 21.7145L19.828 34.7145L45.7297 34.7145L30.2516 13.9461L19.828 21.7145ZM13.9072 21.7145L3.48185 29.4807L7.38071 34.7145L13.9072 34.7145L13.9072 21.7145ZM0.11111 16.2819L6.04787 16.3117L6.17813 -9.68802L0.241373 -9.71777L0.11111 16.2819ZM-4.31061 11.0802L9.40439 29.4829L30.2516 13.9461L16.5366 -4.4566L-4.31061 11.0802ZM19.828 8.71452L13.9072 8.71452L13.9072 34.7145L19.828 34.7145L19.828 8.71452ZM24.3325 13.9484L10.6015 -4.48407L-10.2491 11.0482L3.48185 29.4807L24.3325 13.9484Z" fill="#0000FF" mask="url(#path-2-inside-1_2252_1309)"/>
</svg>
