<svg width="21" height="21" viewBox="0 0 21 21" fill="none" xmlns="http://www.w3.org/2000/svg">
<g clip-path="url(#clip0_2252_1307)">
<path fill-rule="evenodd" clip-rule="evenodd" d="M19.9333 10.7271C19.9333 10.018 19.8696 9.33619 19.7514 8.68164H10.3333V12.5498H15.7151C15.4833 13.7998 14.7787 14.8589 13.7196 15.568V18.0771H16.9514C18.8423 16.3362 19.9333 13.7725 19.9333 10.7271Z" fill="#0000FF"/>
<path fill-rule="evenodd" clip-rule="evenodd" d="M10.3333 20.4999C13.0333 20.4999 15.297 19.6044 16.9515 18.0772L13.7197 15.5681C12.8242 16.1681 11.6788 16.5226 10.3333 16.5226C7.72879 16.5226 5.52424 14.7635 4.73788 12.3999H1.39697V14.9908C3.04243 18.259 6.42425 20.4999 10.3333 20.4999Z" fill="#0000FF"/>
<path fill-rule="evenodd" clip-rule="evenodd" d="M4.7378 12.4002C4.5378 11.8002 4.42416 11.1593 4.42416 10.5002C4.42416 9.8411 4.5378 9.20019 4.7378 8.60019V6.00928H1.39689C0.719616 7.35928 0.333252 8.88655 0.333252 10.5002C0.333252 12.1138 0.719616 13.6411 1.39689 14.9911L4.7378 12.4002Z" fill="#0000FF"/>
<path fill-rule="evenodd" clip-rule="evenodd" d="M10.3333 4.47727C11.8015 4.47727 13.1197 4.98182 14.1561 5.97273L17.0242 3.10455C15.2924 1.49091 13.0288 0.5 10.3333 0.5C6.42425 0.5 3.04243 2.74091 1.39697 6.00909L4.73788 8.6C5.52424 6.23636 7.72879 4.47727 10.3333 4.47727Z" fill="#0000FF"/>
</g>
<defs>
<clipPath id="clip0_2252_1307">
<rect x="0.333252" y="0.5" width="20" height="20" rx="6" fill="white"/>
</clipPath>
</defs>
</svg>
