<svg width="20" height="20" viewBox="0 0 20 21" fill="none" xmlns="http://www.w3.org/2000/svg">
<path d="M15 7.1665C16.3807 7.1665 17.5 6.04722 17.5 4.6665C17.5 3.28579 16.3807 2.1665 15 2.1665C13.6193 2.1665 12.5 3.28579 12.5 4.6665C12.5 6.04722 13.6193 7.1665 15 7.1665Z" stroke="white" stroke-linecap="round" stroke-linejoin="round"/>
<path d="M5 13C6.38071 13 7.5 11.8807 7.5 10.5C7.5 9.11929 6.38071 8 5 8C3.61929 8 2.5 9.11929 2.5 10.5C2.5 11.8807 3.61929 13 5 13Z" stroke="white" stroke-linecap="round" stroke-linejoin="round"/>
<path d="M15 18.8335C16.3807 18.8335 17.5 17.7142 17.5 16.3335C17.5 14.9528 16.3807 13.8335 15 13.8335C13.6193 13.8335 12.5 14.9528 12.5 16.3335C12.5 17.7142 13.6193 18.8335 15 18.8335Z" stroke="white" stroke-linecap="round" stroke-linejoin="round"/>
<path d="M7.1582 11.7583L12.8499 15.075" stroke="white" stroke-linecap="round" stroke-linejoin="round"/>
<path d="M12.8415 5.9248L7.1582 9.24147" stroke="white" stroke-linecap="round" stroke-linejoin="round"/>
</svg>
