<svg width="118" height="33" viewBox="0 0 119 33" fill="none" xmlns="http://www.w3.org/2000/svg">
<path d="M87.4843 20.7991L84.895 17.6213H82.6326V20.7991H81.5995V11.9065H84.9604C86.9612 11.9065 88.3605 13.005 88.3605 14.7574C88.3605 16.1697 87.4582 17.1636 86.072 17.4905L88.7659 20.7991H87.4843ZM82.6326 12.8611V16.6667H84.9342C86.3204 16.6667 87.3405 15.9474 87.3405 14.7574C87.3405 13.5673 86.3204 12.8611 84.9342 12.8611H82.6326ZM94.7127 14.7312H95.7066V20.7991H94.7127V20.1714C94.1766 20.6683 93.4442 20.956 92.5811 20.956C90.8418 20.956 89.4556 19.5437 89.4556 17.7652C89.4556 15.9997 90.8418 14.5743 92.5811 14.5743C93.4442 14.5743 94.1766 14.862 94.7127 15.3589V14.7312ZM92.7119 20.0406C93.5096 20.0406 94.2158 19.7398 94.7127 19.0075V16.5228C94.2158 15.7905 93.5096 15.4897 92.7119 15.4897C91.4303 15.4897 90.4495 16.5097 90.4495 17.7652C90.4495 19.0206 91.4303 20.0406 92.7119 20.0406ZM102.733 11.5142H103.727V20.7991H102.733V20.1714C102.197 20.6683 101.464 20.956 100.601 20.956C98.8619 20.956 97.4757 19.5306 97.4757 17.7652C97.4757 15.9866 98.8619 14.5743 100.601 14.5743C101.464 14.5743 102.197 14.862 102.733 15.3589V11.5142ZM100.732 20.0406C101.53 20.0406 102.236 19.7398 102.733 19.0075V16.5228C102.236 15.7905 101.53 15.4897 100.732 15.4897C99.4504 15.4897 98.4696 16.5097 98.4696 17.7652C98.4696 19.0206 99.4504 20.0406 100.732 20.0406ZM110.778 14.7312H111.772V20.7991H110.778V20.1714C110.242 20.6683 109.51 20.956 108.647 20.956C106.908 20.956 105.521 19.5437 105.521 17.7652C105.521 15.9997 106.908 14.5743 108.647 14.5743C109.51 14.5743 110.242 14.862 110.778 15.3589V14.7312ZM108.778 20.0406C109.575 20.0406 110.282 19.7398 110.778 19.0075V16.5228C110.282 15.7905 109.575 15.4897 108.778 15.4897C107.496 15.4897 106.515 16.5097 106.515 17.7652C106.515 19.0206 107.496 20.0406 108.778 20.0406ZM114.913 15.7251C115.475 15.0058 116.286 14.5874 117.254 14.5874V15.5289C116.26 15.5551 115.449 16.0128 114.913 16.8497V20.7991H113.919V14.7312H114.913V15.7251Z" fill="#0E2B56"/>
<path d="M17.3338 20.6693L14.425 19.3902L13.558 19.7713L16.4308 21.0351L9.09283 24.2627L1.7549 21.0351L4.62771 19.7713L3.76068 19.3902L0.852606 20.6693C0.762032 20.7099 0.689434 20.7826 0.649332 20.8749C0.562214 21.0771 0.652789 21.3121 0.852606 21.4009L8.93519 24.9565C8.98567 24.9789 9.0389 24.9901 9.09283 24.9901C9.14676 24.9901 9.2 24.9789 9.25048 24.9565L17.3331 21.4009C17.4236 21.3603 17.4962 21.2876 17.5363 21.1953C17.6235 20.9931 17.5329 20.7581 17.3331 20.6693H17.3338Z" fill="#5B9BFF"/>
<path d="M17.3338 16.1163L14.3455 14.8021L13.0449 15.3742L15.5637 16.482L9.09283 19.3285L2.62193 16.4813L5.14073 15.3735L3.84019 14.8014L0.852606 16.1163C0.762032 16.1568 0.689434 16.2296 0.649332 16.3219C0.562214 16.524 0.652789 16.759 0.852606 16.8478L8.93519 20.4035C8.98567 20.4258 9.0389 20.437 9.09283 20.437C9.14676 20.437 9.2 20.4258 9.25048 20.4035L17.3331 16.8478C17.4236 16.8072 17.4962 16.7345 17.5363 16.6422C17.6235 16.4401 17.5329 16.2051 17.3331 16.1163H17.3338Z" fill="#438DFF"/>
<path d="M9.09401 9.14352L14.6979 11.6088L9.09401 14.0741L3.48944 11.6088L9.09401 9.14352ZM9.09401 7.65454C9.04008 7.65454 8.98685 7.66573 8.93637 7.68811L0.853095 11.2431C0.76252 11.2836 0.689922 11.3564 0.64982 11.4487C0.562702 11.6508 0.653277 11.8858 0.853095 11.9746L8.93568 15.5303C8.98615 15.5526 9.03939 15.5638 9.09332 15.5638C9.14725 15.5638 9.20049 15.5526 9.25096 15.5303L17.3336 11.9746C17.4241 11.934 17.4967 11.8613 17.5368 11.769C17.6239 11.5669 17.5334 11.3319 17.3336 11.2431L9.25166 7.68811C9.20118 7.66573 9.14794 7.65454 9.09401 7.65454Z" fill="#1470FF"/>
<path d="M41.8198 18.0846H41.77L40.4204 14.2541H38.333L40.4867 19.5211L41.1899 19.2617L40.6852 20.3569L39.5575 23.0537H41.6449L45.245 14.2541H43.1577L41.8198 18.0846Z" fill="#0E2B56"/>
<path d="M28.4134 15.1262L27.1757 14.9241C26.1511 14.7598 25.851 14.494 25.851 14.0261C25.851 13.4442 26.2638 13.1029 27.2131 13.1029C28.1624 13.1029 28.6132 13.4442 28.6505 14.2031H30.6632C30.5885 12.3574 29.4131 11.3076 27.2006 11.3076C24.9881 11.3076 23.8134 12.37 23.8134 14.0135C23.8134 15.4172 24.6134 16.2893 26.326 16.5677L27.5636 16.7698C28.3885 16.909 28.7259 17.2628 28.7259 17.7433C28.7259 18.3252 28.2758 18.6917 27.3133 18.6917C26.3509 18.6917 25.8759 18.3504 25.7881 17.579H23.7754C23.8756 19.4246 25.1001 20.487 27.3251 20.487C29.55 20.487 30.7628 19.5009 30.7628 17.6678C30.7628 16.2641 30.025 15.392 28.4127 15.1262H28.4134Z" fill="#0E2B56"/>
<path d="M51.4247 11.472H44.4878V13.3687H46.3269L46.9319 12.7567V13.3687H46.9375V20.3226H48.975V13.3687H51.4247V11.472Z" fill="#0E2B56"/>
<path d="M35.637 14.2541L33.4625 16.4033V11.472H31.5625V20.3226H33.4625V18.6413L34.0619 18.0594L35.7497 20.3226H37.9622L35.312 16.846L37.9622 14.2541H35.637Z" fill="#0E2B56"/>
<path d="M76.781 17.288C76.781 15.3913 75.4563 14.0891 73.5936 14.0891C71.731 14.0891 70.3564 15.4668 70.3564 17.3132C70.3564 19.1596 71.6687 20.487 73.6441 20.487C75.3063 20.487 76.3938 19.5512 76.669 18.3378H74.8693C74.7317 18.7427 74.3321 18.9952 73.669 18.9952C72.869 18.9952 72.394 18.6287 72.2564 17.8195H76.7312C76.7686 17.6426 76.781 17.4657 76.781 17.2887V17.288ZM72.2938 16.6306C72.4563 15.9102 72.9313 15.5808 73.631 15.5808C74.2933 15.5808 74.7061 15.8718 74.8561 16.6306H72.2938Z" fill="#0E2B56"/>
<path d="M52.9979 14.9339V14.2079H51.3247V20.2911H53.2524V16.106H55.4614V14.2079H53.7156L52.9979 14.9339Z" fill="#0E2B56"/>
<path d="M67.6861 14.9227H67.6488C67.2989 14.3156 66.649 14.0121 65.8864 14.0121C64.2616 14.0121 63.0737 15.3521 63.0737 17.2111C63.0737 19.07 64.2609 20.41 65.9113 20.41C66.6863 20.41 67.3363 20.1065 67.6737 19.4994H67.7235L67.7981 20.2457H69.5854V11.395H67.6854V14.9227H67.6861ZM66.3738 18.6658C65.5365 18.6658 65.0111 18.0461 65.0111 17.2118C65.0111 16.3774 65.5358 15.7703 66.3738 15.7703C67.2118 15.7703 67.749 16.3774 67.749 17.2118C67.749 18.0461 67.2243 18.6658 66.3738 18.6658Z" fill="#0E2B56"/>
<path d="M60.6026 14.9996H60.5528C60.2154 14.3926 59.5655 14.0891 58.778 14.0891C57.1407 14.0891 55.9404 15.4291 55.9404 17.288C55.9404 19.147 57.1407 20.487 58.778 20.487C59.5655 20.487 60.2154 20.1834 60.5528 19.5764H60.6026L60.6773 20.3226H62.4397V14.2534H60.6773L60.6026 14.9996ZM59.2523 18.742C58.415 18.742 57.8895 18.1224 57.8895 17.288C57.8895 16.4537 58.4143 15.8466 59.2523 15.8466C60.0903 15.8466 60.6275 16.4537 60.6275 17.288C60.6275 18.1224 60.1027 18.742 59.2523 18.742Z" fill="#0E2B56"/>
</svg>
