<svg width="145" height="34" viewBox="0 0 145 34" fill="none" xmlns="http://www.w3.org/2000/svg">
<path d="M31.8262 25.1078L26.2886 22.6726L24.638 23.3982L30.1071 25.8042L16.1375 31.9488L2.16778 25.8042L7.63693 23.3982L5.98631 22.6726L0.45004 25.1078C0.277608 25.1851 0.139398 25.3235 0.0630542 25.4993C-0.102797 25.8841 0.0696356 26.3314 0.45004 26.5005L15.8373 33.2696C15.9334 33.3122 16.0348 33.3335 16.1375 33.3335C16.2401 33.3335 16.3415 33.3122 16.4376 33.2696L31.8249 26.5005C31.9973 26.4233 32.1355 26.2848 32.2119 26.1091C32.3777 25.7243 32.2053 25.2769 31.8249 25.1078H31.8262Z" fill="#5B9BFF"/>
<path d="M31.8262 16.4399L26.1372 13.9381L23.6613 15.0272L28.4565 17.1362L16.1375 22.5552L3.8184 17.1349L8.6136 15.0259L6.13768 13.9368L0.45004 16.4399C0.277608 16.5171 0.139398 16.6556 0.0630542 16.8313C-0.102797 17.2161 0.0696356 17.6635 0.45004 17.8326L15.8373 24.6017C15.9334 24.6443 16.0348 24.6656 16.1375 24.6656C16.2401 24.6656 16.3415 24.6443 16.4376 24.6017L31.8249 17.8326C31.9973 17.7554 32.1355 17.6169 32.2119 17.4411C32.3777 17.0564 32.2053 16.609 31.8249 16.4399H31.8262Z" fill="#438DFF"/>
<path d="M16.1393 3.16547L26.8077 7.85883L16.1393 12.5522L5.4695 7.85883L16.1393 3.16547ZM16.1393 0.330811C16.0366 0.330811 15.9352 0.352114 15.8392 0.39472L0.450529 7.16248C0.278096 7.23971 0.139887 7.37818 0.0635424 7.55393C-0.102309 7.93872 0.0701239 8.38609 0.450529 8.55518L15.8378 15.3243C15.9339 15.3669 16.0353 15.3882 16.1379 15.3882C16.2406 15.3882 16.342 15.3669 16.4381 15.3243L31.8254 8.55518C31.9978 8.47795 32.136 8.33948 32.2123 8.16373C32.3782 7.77894 32.2058 7.33158 31.8254 7.16248L16.4394 0.39472C16.3433 0.352114 16.2419 0.330811 16.1393 0.330811Z" fill="#1470FF"/>
<path d="M78.4422 20.1871H78.3474L75.778 12.8948H71.8042L75.9044 22.9219L77.2431 22.428L76.2822 24.513L74.1353 29.6471H78.1092L84.963 12.8948H80.9892L78.4422 20.1871Z" fill="#0E2B56"/>
<path d="M52.9194 14.5551L50.5633 14.1703C48.6126 13.8574 48.0413 13.3515 48.0413 12.4607C48.0413 11.353 48.8271 10.7032 50.6344 10.7032C52.4416 10.7032 53.2998 11.353 53.3709 12.7976H57.2026C57.0605 9.28391 54.8228 7.2854 50.6107 7.2854C46.3986 7.2854 44.1622 9.30787 44.1622 12.4368C44.1622 15.109 45.6852 16.7693 48.9456 17.2992L51.3017 17.684C52.8721 17.949 53.5144 18.6227 53.5144 19.5374C53.5144 20.6452 52.6575 21.3429 50.8252 21.3429C48.993 21.3429 48.0887 20.6931 47.9215 19.2245H44.0898C44.2807 22.7382 46.6118 24.7607 50.8476 24.7607C55.0834 24.7607 57.3922 22.8833 57.3922 19.3936C57.3922 16.7214 55.9877 15.0611 52.9181 14.5551H52.9194Z" fill="#0E2B56"/>
<path d="M96.7277 7.59827H83.5215V11.2092H87.0228L88.1745 10.0441V11.2092H88.1851V24.4478H92.0641V11.2092H96.7277V7.59827Z" fill="#0E2B56"/>
<path d="M66.6719 12.8948L62.5322 16.9863V7.59827H58.915V24.4478H62.5322V21.247L63.6734 20.1392L66.8864 24.4478H71.0985L66.0532 17.8291L71.0985 12.8948H66.6719Z" fill="#0E2B56"/>
<path d="M145 18.6706C145 15.0597 142.478 12.5806 138.932 12.5806C135.386 12.5806 132.769 15.2035 132.769 18.7186C132.769 22.2336 135.267 24.7607 139.028 24.7607C142.192 24.7607 144.263 22.9792 144.787 20.6691H141.36C141.098 21.44 140.338 21.9207 139.075 21.9207C137.552 21.9207 136.648 21.223 136.386 19.6825H144.905C144.976 19.3457 145 19.0088 145 18.672V18.6706ZM136.457 17.4191C136.767 16.0477 137.671 15.4206 139.003 15.4206C140.264 15.4206 141.05 15.9744 141.335 17.4191H136.457Z" fill="#0E2B56"/>
<path d="M99.7225 14.1889V12.8069H96.5371V24.3878H100.207V16.4204H104.412V12.8069H101.089L99.7225 14.1889Z" fill="#0E2B56"/>
<path d="M127.685 14.1676H127.614C126.948 13.0119 125.711 12.4341 124.259 12.4341C121.166 12.4341 118.904 14.9851 118.904 18.5241C118.904 22.0631 121.164 24.6142 124.306 24.6142C125.782 24.6142 127.019 24.0363 127.661 22.8806H127.756L127.898 24.3013H131.301V7.45178H127.684V14.1676H127.685ZM125.187 21.2935C123.593 21.2935 122.593 20.1139 122.593 18.5255C122.593 16.937 123.592 15.7813 125.187 15.7813C126.782 15.7813 127.805 16.937 127.805 18.5255C127.805 20.1139 126.806 21.2935 125.187 21.2935Z" fill="#0E2B56"/>
<path d="M114.2 14.3141H114.105C113.463 13.1584 112.225 12.5806 110.726 12.5806C107.609 12.5806 105.324 15.1316 105.324 18.6706C105.324 22.2096 107.609 24.7607 110.726 24.7607C112.225 24.7607 113.463 24.1828 114.105 23.0271H114.2L114.342 24.4478H117.697V12.8935H114.342L114.2 14.3141ZM111.629 21.4387C110.035 21.4387 109.035 20.259 109.035 18.6706C109.035 17.0822 110.034 15.9265 111.629 15.9265C113.225 15.9265 114.247 17.0822 114.247 18.6706C114.247 20.259 113.248 21.4387 111.629 21.4387Z" fill="#0E2B56"/>
</svg>
