<svg width="252" height="70" viewBox="0 0 252 70" fill="none" xmlns="http://www.w3.org/2000/svg">
<path d="M186.83 43.9482L181.278 37.1341H176.427V43.9482H174.212V24.8798H181.418C185.709 24.8798 188.709 27.2353 188.709 30.9929C188.709 34.0214 186.774 36.1526 183.802 36.8537L189.579 43.9482H186.83ZM176.427 26.9268V35.087H181.362C184.335 35.087 186.522 33.5447 186.522 30.9929C186.522 28.4411 184.335 26.9268 181.362 26.9268H176.427ZM202.33 30.9368H204.462V43.9482H202.33V42.6022C201.181 43.6678 199.61 44.2847 197.76 44.2847C194.03 44.2847 191.058 41.2562 191.058 37.4425C191.058 33.6569 194.03 30.6003 197.76 30.6003C199.61 30.6003 201.181 31.2172 202.33 32.2828V30.9368ZM198.04 42.3218C199.751 42.3218 201.265 41.6769 202.33 40.1065V34.7786C201.265 33.2082 199.751 32.5632 198.04 32.5632C195.292 32.5632 193.189 34.7505 193.189 37.4425C193.189 40.1345 195.292 42.3218 198.04 42.3218ZM219.528 24.0385H221.659V43.9482H219.528V42.6022C218.378 43.6678 216.808 44.2847 214.957 44.2847C211.228 44.2847 208.255 41.2282 208.255 37.4425C208.255 33.6288 211.228 30.6003 214.957 30.6003C216.808 30.6003 218.378 31.2172 219.528 32.2828V24.0385ZM215.238 42.3218C216.948 42.3218 218.462 41.6769 219.528 40.1065V34.7786C218.462 33.2082 216.948 32.5632 215.238 32.5632C212.489 32.5632 210.386 34.7505 210.386 37.4425C210.386 40.1345 212.489 42.3218 215.238 42.3218ZM236.78 30.9368H238.911V43.9482H236.78V42.6022C235.631 43.6678 234.06 44.2847 232.209 44.2847C228.48 44.2847 225.507 41.2562 225.507 37.4425C225.507 33.6569 228.48 30.6003 232.209 30.6003C234.06 30.6003 235.631 31.2172 236.78 32.2828V30.9368ZM232.49 42.3218C234.2 42.3218 235.715 41.6769 236.78 40.1065V34.7786C235.715 33.2082 234.2 32.5632 232.49 32.5632C229.742 32.5632 227.639 34.7505 227.639 37.4425C227.639 40.1345 229.742 42.3218 232.49 42.3218ZM245.646 33.068C246.852 31.5257 248.59 30.6284 250.666 30.6284V32.6474C248.534 32.7035 246.796 33.6849 245.646 35.4796V43.9482H243.515V30.9368H245.646V33.068Z" fill="#0E2B56"/>
<path d="M36.4058 44.2571L30.1686 41.5142L28.3094 42.3315L34.4696 45.0414L18.7348 51.9624L3.00004 45.0414L9.16021 42.3315L7.30104 41.5142L1.06525 44.2571C0.871034 44.3441 0.715361 44.5 0.629371 44.698C0.442564 45.1314 0.636784 45.6353 1.06525 45.8257L18.3968 53.4501C18.505 53.4981 18.6192 53.5221 18.7348 53.5221C18.8504 53.5221 18.9646 53.4981 19.0728 53.4501L36.4044 45.8257C36.5986 45.7388 36.7542 45.5828 36.8402 45.3848C37.027 44.9514 36.8328 44.4475 36.4044 44.2571H36.4058Z" fill="#5B9BFF"/>
<path d="M36.4058 34.4942L29.9981 31.6763L27.2093 32.903L32.6104 35.2785L18.7348 41.3822L4.85921 35.277L10.2603 32.9015L7.47154 31.6748L1.06525 34.4942C0.871034 34.5812 0.715361 34.7372 0.629371 34.9351C0.442564 35.3685 0.636784 35.8724 1.06525 36.0629L18.3968 43.6873C18.505 43.7352 18.6192 43.7592 18.7348 43.7592C18.8504 43.7592 18.9646 43.7352 19.0728 43.6873L36.4044 36.0629C36.5986 35.9759 36.7542 35.8199 36.8402 35.622C37.027 35.1886 36.8328 34.6847 36.4044 34.4942H36.4058Z" fill="#438DFF"/>
<path d="M18.7368 19.5424L30.7532 24.8288L18.7368 30.1152L6.71887 24.8288L18.7368 19.5424ZM18.7368 16.3496C18.6211 16.3496 18.507 16.3736 18.3987 16.4216L1.06574 24.0445C0.871522 24.1315 0.715849 24.2874 0.629859 24.4854C0.443052 24.9188 0.637272 25.4227 1.06574 25.6131L18.3973 33.2375C18.5055 33.2855 18.6196 33.3095 18.7353 33.3095C18.8509 33.3095 18.9651 33.2855 19.0733 33.2375L36.4048 25.6131C36.5991 25.5262 36.7547 25.3702 36.8407 25.1722C37.0275 24.7388 36.8333 24.2349 36.4048 24.0445L19.0748 16.4216C18.9666 16.3736 18.8524 16.3496 18.7368 16.3496Z" fill="#1470FF"/>
<path d="M88.9118 38.7147H88.805L85.911 30.501H81.4351L86.0533 41.7951L87.5611 41.2387L86.4788 43.5872L84.0607 49.37H88.5367L96.2565 30.501H91.7806L88.9118 38.7147Z" fill="#0E2B56"/>
<path d="M60.1642 32.3714L57.5104 31.938C55.3132 31.5855 54.6697 31.0157 54.6697 30.0124C54.6697 28.7646 55.5548 28.0328 57.5904 28.0328C59.626 28.0328 60.5927 28.7646 60.6728 30.3918H64.9886C64.8285 26.4341 62.3081 24.1831 57.5638 24.1831C52.8195 24.1831 50.3005 26.4611 50.3005 29.9854C50.3005 32.9952 52.0159 34.8653 55.6883 35.4622L58.3421 35.8956C60.1109 36.1941 60.8344 36.9529 60.8344 37.9832C60.8344 39.2309 59.8692 40.0167 57.8054 40.0167C55.7417 40.0167 54.7231 39.2849 54.5348 37.6308H50.219C50.434 41.5884 53.0596 43.8664 57.8306 43.8664C62.6016 43.8664 65.2021 41.7519 65.2021 37.8212C65.2021 34.8113 63.6202 32.9412 60.1627 32.3714H60.1642Z" fill="#0E2B56"/>
<path d="M109.508 24.5356H94.6333V28.6028H98.577L99.8743 27.2906V28.6028H99.8861V43.5141H104.255V28.6028H109.508V24.5356Z" fill="#0E2B56"/>
<path d="M75.6544 30.5014L70.9916 35.1099V24.5356H66.9175V43.5141H70.9916V39.9089L72.2771 38.6611L75.8961 43.5141H80.6404L74.9576 36.0592L80.6404 30.5014H75.6544Z" fill="#0E2B56"/>
<path d="M163.879 37.007C163.879 32.9399 161.038 30.1475 157.044 30.1475C153.05 30.1475 150.103 33.1018 150.103 37.061C150.103 41.0202 152.917 43.8665 157.153 43.8665C160.717 43.8665 163.049 41.86 163.639 39.258H159.78C159.485 40.1263 158.628 40.6677 157.206 40.6677C155.491 40.6677 154.472 39.8819 154.177 38.1468H163.772C163.852 37.7673 163.879 37.3879 163.879 37.0085V37.007ZM154.257 35.5973C154.605 34.0526 155.624 33.3463 157.124 33.3463C158.545 33.3463 159.43 33.9701 159.752 35.5973H154.257Z" fill="#0E2B56"/>
<path d="M112.881 31.9585V30.4019H109.293V43.4461H113.426V34.472H118.163V30.4019H114.42L112.881 31.9585Z" fill="#0E2B56"/>
<path d="M144.377 31.935H144.297C143.547 30.6333 142.153 29.9824 140.518 29.9824C137.034 29.9824 134.487 32.8558 134.487 36.842C134.487 40.8281 137.032 43.7015 140.571 43.7015C142.233 43.7015 143.627 43.0506 144.35 41.7489H144.457L144.617 43.3491H148.45V24.3706H144.375V31.935H144.377ZM141.563 39.9613C139.768 39.9613 138.641 38.6326 138.641 36.8435C138.641 35.0543 139.766 33.7526 141.563 33.7526C143.36 33.7526 144.512 35.0543 144.512 36.8435C144.512 38.6326 143.387 39.9613 141.563 39.9613Z" fill="#0E2B56"/>
<path d="M129.188 32.1H129.081C128.358 30.7983 126.964 30.1475 125.275 30.1475C121.764 30.1475 119.191 33.0209 119.191 37.007C119.191 40.9932 121.764 43.8665 125.275 43.8665C126.964 43.8665 128.358 43.2157 129.081 41.914H129.188L129.348 43.5141H133.127V30.4999H129.348L129.188 32.1ZM126.292 40.1248C124.497 40.1248 123.37 38.7961 123.37 37.007C123.37 35.2179 124.495 33.9162 126.292 33.9162C128.089 33.9162 129.241 35.2179 129.241 37.007C129.241 38.7961 128.116 40.1248 126.292 40.1248Z" fill="#0E2B56"/>
</svg>
