<svg width="34" height="34" viewBox="0 0 34 34" fill="none" xmlns="http://www.w3.org/2000/svg">
<path d="M4.25 26.9168V25.5002C4.25 22.3706 6.78705 19.8335 9.91667 19.8335H15.5833C18.7129 19.8335 21.25 22.3706 21.25 25.5002V26.9168M21.25 15.5835C23.5972 15.5835 25.5 13.6807 25.5 11.3335C25.5 8.98629 23.5972 7.0835 21.25 7.0835M29.75 26.9168V25.5002C29.75 22.3706 27.2129 19.8335 24.0833 19.8335H23.375M17 11.3335C17 13.6807 15.0972 15.5835 12.75 15.5835C10.4028 15.5835 8.5 13.6807 8.5 11.3335C8.5 8.98629 10.4028 7.0835 12.75 7.0835C15.0972 7.0835 17 8.98629 17 11.3335Z" stroke="#4285F4" stroke-width="2" stroke-linecap="round" stroke-linejoin="round"/>
</svg>
