<svg width="32" height="32" viewBox="0 0 32 32" fill="none" xmlns="http://www.w3.org/2000/svg">
<path fill-rule="evenodd" clip-rule="evenodd" d="M24.8439 7.41275C22.6579 5.009 19.5051 3.5 16 3.5C12.4949 3.5 9.34213 5.009 7.15613 7.41275L24.8438 7.41275L24.8439 7.41275ZM7.15625 23.4887C9.34225 25.8925 12.495 27.4015 16.0001 27.4015C19.5053 27.4015 22.658 25.8925 24.844 23.4888L7.15625 23.4887ZM5.308 8.42887C2.3765 8.42887 -6.38656e-07 10.8054 -8.94947e-07 13.737L-1.19459e-06 17.1645C-1.45087e-06 20.096 2.3765 22.4725 5.308 22.4725L26.692 22.4725C29.6235 22.4725 32 20.096 32 17.1645L32 13.737C32 10.8054 29.6235 8.42888 26.692 8.42888L5.308 8.42887ZM31.454 13.6764C31.454 11.0798 29.3491 8.97488 26.7526 8.97488L21.4445 8.97488C18.848 8.97488 16.7431 11.0798 16.7431 13.6763L16.7431 17.2403C16.7431 19.8369 14.6382 21.9417 12.0418 21.9417L26.7525 21.9418C29.349 21.9418 31.4539 19.8368 31.4539 17.2403L31.4539 13.6763L31.454 13.6764ZM13.0125 13.9946L13.0125 19.0146L14.529 19.0146L14.529 13.9946L13.0125 13.9946ZM12.8608 12.4099C12.8608 12.6492 12.9558 12.8787 13.1251 13.048C13.2943 13.2172 13.5238 13.3123 13.7631 13.3123C14.0025 13.3123 14.232 13.2172 14.4012 13.048C14.5704 12.8787 14.6655 12.6492 14.6655 12.4099C14.6655 12.1706 14.5704 11.941 14.4012 11.7718C14.232 11.6026 14.0025 11.5075 13.7631 11.5075C13.5238 11.5075 13.2943 11.6026 13.1251 11.7718C12.9558 11.941 12.8608 12.1706 12.8608 12.4099ZM2.745 11.6896L4.70137 19.0146L5.96012 19.0146L7.43138 13.9492L8.90237 19.0147L10.2066 19.0147L12.1328 11.6896L10.6615 11.6896L9.53938 16.5124L8.14413 11.6896L6.79438 11.6896L5.399 16.391L4.3375 11.6896L2.745 11.6896ZM19.1545 11.6896L19.1545 19.0146L20.762 19.0146L20.762 16.1484L24.402 16.1484L24.402 14.6621L20.762 14.6621L20.762 13.1759L24.6445 13.1759L24.6445 11.6896L19.1545 11.6896ZM25.7365 13.9948L25.7365 19.0148L27.2531 19.0148L27.2531 13.9948L25.7365 13.9948ZM25.6 12.3948C25.6 12.6341 25.6951 12.8636 25.8643 13.0328C26.0335 13.2021 26.2631 13.2971 26.5024 13.2971C26.7417 13.2971 26.9712 13.2021 27.1405 13.0328C27.3097 12.8636 27.4048 12.6341 27.4048 12.3948C27.4048 12.1554 27.3097 11.9259 27.1405 11.7567C26.9712 11.5874 26.7417 11.4924 26.5024 11.4924C26.2631 11.4924 26.0335 11.5874 25.8643 11.7567C25.6951 11.9259 25.6 12.1554 25.6 12.3948Z" fill="#222222" fill-opacity="0.2"/>
<line x1="25.3968" y1="0.804216" x2="2.3968" y2="30.8042" stroke="#CCCCCC"/>
</svg>
