<svg width="32" height="25" viewBox="0 0 32 25" fill="none" xmlns="http://www.w3.org/2000/svg">
<g clip-path="url(#clip0_643_793)">
<path fill-rule="evenodd" clip-rule="evenodd" d="M24.8439 4.41275C22.6579 2.009 19.5051 0.500002 16 0.500001C12.4949 0.500001 9.34213 2.009 7.15613 4.41275L24.8438 4.41275L24.8439 4.41275ZM7.15625 20.4887C9.34225 22.8925 12.495 24.4015 16.0001 24.4015C19.5053 24.4015 22.658 22.8925 24.844 20.4888L7.15625 20.4887ZM5.308 5.42887C2.3765 5.42887 -6.38656e-07 7.80538 -8.94947e-07 10.737L-1.19459e-06 14.1645C-1.45087e-06 17.096 2.3765 19.4725 5.308 19.4725L26.692 19.4725C29.6235 19.4725 32 17.096 32 14.1645L32 10.737C32 7.80538 29.6235 5.42888 26.692 5.42888L5.308 5.42887ZM31.454 10.6764C31.454 8.07975 29.3491 5.97488 26.7526 5.97488L21.4445 5.97488C18.848 5.97488 16.7431 8.07975 16.7431 10.6763L16.7431 14.2403C16.7431 16.8369 14.6382 18.9417 12.0418 18.9417L26.7525 18.9418C29.349 18.9418 31.4539 16.8368 31.4539 14.2403L31.4539 10.6763L31.454 10.6764ZM13.0125 10.9946L13.0125 16.0146L14.529 16.0146L14.529 10.9946L13.0125 10.9946ZM12.8608 9.40988C12.8608 9.6492 12.9558 9.87872 13.1251 10.048C13.2943 10.2172 13.5238 10.3123 13.7631 10.3123C14.0025 10.3123 14.232 10.2172 14.4012 10.048C14.5704 9.87872 14.6655 9.6492 14.6655 9.40988C14.6655 9.17055 14.5704 8.94103 14.4012 8.7718C14.232 8.60257 14.0025 8.5075 13.7631 8.5075C13.5238 8.5075 13.2943 8.60257 13.1251 8.7718C12.9558 8.94103 12.8608 9.17055 12.8608 9.40988ZM2.745 8.68962L4.70137 16.0146L5.96012 16.0146L7.43138 10.9492L8.90237 16.0147L10.2066 16.0147L12.1328 8.68962L10.6615 8.68962L9.53938 13.5124L8.14413 8.68962L6.79438 8.68962L5.399 13.391L4.3375 8.68962L2.745 8.68962ZM19.1545 8.68963L19.1545 16.0146L20.762 16.0146L20.762 13.1484L24.402 13.1484L24.402 11.6621L20.762 11.6621L20.762 10.1759L24.6445 10.1759L24.6445 8.68963L19.1545 8.68963ZM25.7365 10.9948L25.7365 16.0148L27.2531 16.0148L27.2531 10.9948L25.7365 10.9948ZM25.6 9.39475C25.6 9.63408 25.6951 9.8636 25.8643 10.0328C26.0335 10.2021 26.2631 10.2971 26.5024 10.2971C26.7417 10.2971 26.9712 10.2021 27.1405 10.0328C27.3097 9.8636 27.4048 9.63408 27.4048 9.39475C27.4048 9.15543 27.3097 8.9259 27.1405 8.75668C26.9712 8.58745 26.7417 8.49238 26.5024 8.49238C26.2631 8.49238 26.0335 8.58745 25.8643 8.75668C25.6951 8.9259 25.6 9.15543 25.6 9.39475Z" fill="#222222"/>
</g>
<defs>
<clipPath id="clip0_643_793">
<rect width="32" height="24" fill="white" transform="translate(0 0.5)"/>
</clipPath>
</defs>
</svg>
